<?xml version="1.0" standalone="no"?>
<!DOCTYPE svg PUBLIC "-//W3C//DTD SVG 1.1//EN" "http://www.w3.org/Graphics/SVG/1.1/DTD/svg11.dtd" >
<svg xmlns="http://www.w3.org/2000/svg" xmlns:xlink="http://www.w3.org/1999/xlink" version="1.1">
<metadata></metadata>
<defs>
<font id="newrockerregular" horiz-adv-x="1495" >
<font-face units-per-em="2048" ascent="1638" descent="-410" />
<missing-glyph horiz-adv-x="460" />
<glyph unicode="&#xfb01;" horiz-adv-x="1308" d="M31 803v22q84 31 170 107v86q0 196 -6 258.5t-35 120.5q99 26 214.5 78.5t184.5 111.5q109 -97 264 -127q-55 -153 -170 -153q-94 0 -172 94l-41 -27q16 -58 21.5 -137.5t5.5 -259.5v-45h283q85 0 205 18t180 43l36 -61v-752q0 -128 56 -149v-31q-118 -19 -242 -57h-10 q-70 98 -70 221v713q-51 0 -90 -7.5t-61 -16t-42.5 -28.5t-27 -29t-22.5 -34l-195 26v-516q0 -129 27 -178.5t100 -68.5v-25q-135 -3 -254 -57q-96 53 -256 57v25q42 10 65 32t37.5 82t14.5 166v498h-170zM846 1274q90 154 196 209q24 -28 90 -79t103 -75 q-79 -56 -124.5 -101.5t-76.5 -109.5q-15 18 -50 47.5t-83 66.5t-55 42z" />
<glyph unicode="&#xfb02;" horiz-adv-x="1323" d="M31 803v22q84 31 170 107v86q0 196 -6 258.5t-35 120.5q99 26 214.5 78.5t184.5 111.5q133 -72 373 -123h12q40 0 87.5 24t111 65t104.5 61q-71 -85 -71 -320v-991q0 -113 12.5 -178.5t39.5 -112.5t91 -125l-12 -18q-40 19 -89 41t-67 30.5t-40.5 23.5t-43.5 36 q-135 -57 -262 -57l-2 14q106 52 106 231v1051q0 85 -12 127q-52 -86 -135 -86q-93 0 -281 121l-41 -27q16 -58 21.5 -137.5t5.5 -259.5v-45h289v-8q-64 -67 -94 -162l-195 26v-516q0 -129 27 -178.5t100 -68.5v-25q-135 -3 -254 -57q-96 53 -256 57v25q42 10 65 32t37.5 82 t14.5 166v498h-170z" />
<glyph horiz-adv-x="0" />
<glyph horiz-adv-x="682" />
<glyph horiz-adv-x="0" />
<glyph horiz-adv-x="0" />
<glyph unicode="&#xd;" horiz-adv-x="571" />
<glyph unicode=" "  horiz-adv-x="460" />
<glyph unicode="&#x09;" horiz-adv-x="460" />
<glyph unicode="&#xa0;" horiz-adv-x="460" />
<glyph unicode="!" horiz-adv-x="612" d="M115 45q90 154 196 209q24 -28 90 -79t103 -75q-79 -56 -124.5 -101.5t-76.5 -109.5q-15 18 -50 47.5t-83 66.5t-55 42zM150 412q36 74 36 231v741q0 158 -36 232h327q-35 -95 -35 -230v-745q0 -134 35 -229h-327z" />
<glyph unicode="&#x22;" horiz-adv-x="724" d="M80 1501q37 -6 117 -6q81 0 131 4q-15 -44 -38 -165.5t-34 -223.5q-30 1 -66.5 5t-60.5 5q-33 309 -49 381zM408 1501q37 -6 116 -6q81 0 131 4q-14 -44 -37 -165.5t-34 -223.5q-30 1 -66.5 5t-60.5 5q-33 309 -49 381z" />
<glyph unicode="#" horiz-adv-x="1435" d="M84 453v262q76 -37 231 -37h41l62 240q-139 0 -234 -35v262q76 -37 232 -37h53l43 164q35 134 35 205q0 12 -4 24h295q-20 -11 -40.5 -30t-48.5 -71.5t-47 -125.5l-43 -166h240l43 164q35 134 35 205q0 12 -4 24h295q-30 -16 -70 -75t-65 -152l-43 -166h45q155 0 231 37 v-262q-95 35 -229 35h-99l-63 -240h59q156 0 232 37v-262q-92 34 -230 34h-110l-68 -258q-33 -137 -33 -204q0 -13 4 -25h-294q32 17 69.5 71.5t63.5 155.5l67 260h-239l-68 -258q-33 -148 -33 -204q0 -13 4 -25h-295q33 17 70 70t64 157l67 260q-133 -3 -221 -34zM545 678 h241l62 240h-240z" />
<glyph unicode="$" horiz-adv-x="1234" d="M61 1303q27 -3 58 -3q189 0 370 93q-4 136 -36 217h327q-26 -84 -32 -195q138 -63 378 -74q-31 -37 -49.5 -82t-26 -101.5t-9 -92t-1.5 -96.5q-93 4 -158.5 59t-90.5 146q-27 1 -52 8.5t-38 15t-38.5 24.5t-35.5 23q-46 -42 -80 -66t-96 -51v-161l677 -240 q-10 -85 -10 -174q0 -63 3.5 -109t9.5 -104.5t10 -110.5q-86 -32 -156.5 -74.5t-157.5 -113.5q0 -132 35 -227h-327q36 74 36 231v31q-158 70 -295 110q-11 -9 -33 -30.5t-31.5 -29t-27 -15t-37.5 -7.5q10 109 18 291t13 262q105 0 172.5 -60t67.5 -187q73 -35 125.5 -55.5 t126.5 -42.5t100 -31q18 22 47.5 52t44.5 48l-14 154l-651 270q-10 76 -15 186.5t-8 132.5q-53 15 -83 63t-30 116z" />
<glyph unicode="%" horiz-adv-x="1626" d="M63 971q21 49 21 293q0 51 -2 147.5t-2 116.5q74 4 177 28t165 62q77 -65 231 -80v-577q-80 -18 -158.5 -64.5t-107.5 -79.5q-35 33 -152 85t-172 69zM272 1051q11 -4 41.5 -15t76 -31t61.5 -32l4 483q-32 0 -89 18.5t-92 43.5q5 -118 5 -242q0 -96 -7 -225zM283 0 q61 32 149 227l522 1157q12 30 31 98t19 107q0 10 -5 25h316q-62 -32 -150 -228l-522 -1157q-12 -29 -30.5 -97t-18.5 -107q0 -13 4 -25h-315zM954 154q21 50 21 292q0 51 -2 148t-2 117q74 4 177 28t165 62q77 -65 231 -80v-578q-80 -18 -158.5 -64t-107.5 -79 q-35 33 -152 85t-172 69zM1163 233q138 -46 178 -77l5 483q-32 0 -89 18t-92 43q4 -94 4 -241q0 -115 -6 -226z" />
<glyph unicode="&#x26;" horiz-adv-x="1525" d="M100 178q23 329 23 426q0 89 -10 174l211 115l-134 147q-3 111 -26 342q209 60 395 199q68 -37 252 -96q7 5 21 25t18 28q38 -24 102 -41.5t107 -21.5q-39 -66 -111 -242.5t-143 -325.5q-14 56 -40.5 194t-41.5 206q-102 14 -188 55q-25 -26 -60 -49t-59 -31l18 -141 l508 -590l109 319q97 -37 422 -106q-35 -42 -109.5 -72t-142.5 -30l-105 -269l365 -276l-142 -193l-389 283q-205 -132 -317 -244q-123 79 -267 134t-247 77q-3 1 -10 2t-9 2zM379 330q44 -1 125.5 -35t126.5 -66q51 51 168 138l-322 356l-84 -55z" />
<glyph unicode="'" horiz-adv-x="397" d="M80 1501q37 -6 117 -6q81 0 131 4q-15 -44 -38 -165.5t-34 -223.5q-30 1 -66.5 5t-60.5 5q-33 309 -49 381z" />
<glyph unicode="(" horiz-adv-x="886" d="M78 692q0 159 42 313t128 283t201 195q-6 4 -28.5 21.5t-46.5 33t-46 21.5q228 55 366 55q85 0 221 -19q-100 -19 -181.5 -65t-139 -113.5t-99 -149t-66 -178t-35.5 -194t-11 -203.5t11 -202.5t35.5 -192t66 -175.5t99 -145.5t139 -111t181.5 -64.5q-147 -10 -227 -10 q-168 0 -360 47q22 6 46 21.5t46.5 33t28.5 21.5q-94 59 -166.5 146.5t-116.5 190.5t-66 214t-22 227z" />
<glyph unicode=")" horiz-adv-x="886" d="M-29 -199q100 19 181.5 64.5t139 111t99.5 145.5t66 175.5t35.5 192t11.5 202.5q0 128 -15.5 243.5t-54.5 228t-98 198t-152.5 148t-212.5 85.5q136 19 222 19q138 0 366 -55q-22 -6 -46 -21.5t-46.5 -33t-28.5 -21.5q115 -66 201 -195t128 -283t42 -313q0 -116 -22 -227 t-66 -214t-116.5 -190.5t-166.5 -146.5q6 -4 28.5 -21.5t46.5 -33t46 -21.5q-192 -47 -360 -47q-81 0 -228 10z" />
<glyph unicode="*" horiz-adv-x="892" d="M74 1331q27 31 116 195q91 -104 205 -205q-10 51 -33.5 157t-29.5 136q37 -6 106 -6q71 0 121 4q-47 -143 -76 -283q35 31 115 104.5t109 98.5q7 -20 29.5 -60t48.5 -84t32 -55q-132 -22 -299 -80q172 -61 301 -84q-3 -5 -32 -52t-50.5 -86t-27.5 -60q-3 3 -90 82.5 t-130 115.5q32 -154 76 -282q-50 4 -121 4q-68 0 -106 -6q4 21 28.5 129.5t34.5 161.5q-62 -54 -121 -114.5t-87 -94.5q-14 29 -53.5 97t-61.5 99q88 23 262 82q-51 18 -153.5 50.5t-112.5 35.5z" />
<glyph unicode="+" horiz-adv-x="974" d="M100 596v283q76 -37 232 -37h49v49q0 155 -37 231h283q-35 -95 -35 -229v-51h49q155 0 231 37v-283q-95 35 -229 35h-51v-51q0 -135 35 -230h-283q37 76 37 232v49h-51q-135 0 -230 -35z" />
<glyph unicode="," horiz-adv-x="460" d="M74 92q45 37 66.5 80t43.5 123q68 0 130 -54t69 -159q-16 -46 -27 -73.5t-32.5 -77t-44 -82t-53 -68.5t-69.5 -59t-83 -33q51 94 51 217q0 115 -51 186z" />
<glyph unicode="-" horiz-adv-x="919" d="M125 406v282q76 -37 231 -37h207q156 0 232 37v-282q-92 34 -230 34h-211q-137 0 -229 -34z" />
<glyph unicode="." horiz-adv-x="493" d="M55 45q90 153 197 209q24 -28 89.5 -79.5t102.5 -74.5q-78 -56 -123.5 -101.5t-76.5 -109.5q-15 18 -50.5 47.5t-83 66t-55.5 42.5z" />
<glyph unicode="/" horiz-adv-x="1212" d="M37 0q31 16 83 74.5t103 152.5l559 1045q82 152 82 229h316q-31 -16 -83.5 -74.5t-103.5 -152.5l-559 -1045q-82 -152 -82 -229h-315z" />
<glyph unicode="0" horiz-adv-x="1122" d="M119 244q37 84 37 571q0 214 -6 520q112 6 218 46.5t248 127.5q98 -84 166.5 -114t184.5 -39v-1133q-42 -10 -82.5 -25t-72 -31t-64.5 -39t-54.5 -40t-48.5 -42t-40 -38.5t-34 -36t-26 -28.5q-80 76 -220.5 176.5t-205.5 124.5zM426 401q3 -3 50.5 -30.5t107 -64.5 t90.5 -58l4 944q-16 7 -69 28.5t-94.5 42.5t-84.5 52q6 -276 6 -473q0 -262 -10 -441z" />
<glyph unicode="1" horiz-adv-x="854" d="M0 1163q98 31 173.5 127.5t121.5 216.5q28 -32 62 -56t78 -40t68.5 -23.5t74 -17t53.5 -10.5v-1008q0 -139 117 -139q21 0 57 8q-19 -23 -70 -65t-115 -91t-88 -69q-18 9 -81.5 55.5t-100.5 63.5v1124q-23 -52 -81 -81.5t-128 -29.5q-76 0 -141 35z" />
<glyph unicode="2" horiz-adv-x="1126" d="M61 1270q85 19 219 95t187 144q95 -81 244.5 -143.5t224.5 -62.5q14 0 20 2q-20 -38 -20 -115v-152q0 -53 16.5 -125.5t42.5 -109.5q-120 -22 -214.5 -58t-158 -79t-113.5 -102t-80 -115.5t-58 -131.5q125 37 211 37q160 0 297 -73q1 1 11 9t15.5 12.5t19 12t25.5 12 t29.5 8t36.5 3.5q30 0 63 -8l-264 -342q-50 32 -82 49.5t-89 34t-118 16.5q-191 0 -391 -156q-24 88 -24 191q0 167 64.5 332t190 301t289.5 202v306q-173 -70 -348 -70q-179 0 -246 76z" />
<glyph unicode="3" horiz-adv-x="1032" d="M84 1380q261 49 381 125q94 -66 202 -104.5t214 -38.5q4 0 13.5 1t14.5 1q-22 -67 -33.5 -192.5t-11.5 -245.5q-48 -16 -86 -29.5t-82 -31.5t-80 -31q49 -26 116.5 -53.5t106 -43t38.5 -22.5q0 -78 18.5 -331.5t30.5 -272.5q-124 -2 -310.5 -44t-257.5 -87 q-34 38 -118 88t-144 61q21 75 21 150q0 49 -11 102q32 4 50 4q175 0 276 -188l182 43q-2 11 -4.5 209.5t-3.5 207.5l-207 121l-82 -47l-84 109l84 94l82 -53l195 80q0 35 -3 103t-3 103q0 51 6 103q-74 -68 -191 -68q-98 0 -187 48.5t-132 129.5z" />
<glyph unicode="4" horiz-adv-x="1144" d="M33 664q27 18 135.5 181.5t217.5 366t126 297.5q45 -52 125.5 -86.5t138.5 -45.5t113 -15v-733h145q9 -186 47 -244q-4 3 -14 12t-13.5 11.5t-12.5 8.5t-15.5 7.5t-17.5 4.5t-24 4t-30 1h-65v-82q0 -139 117 -139q21 0 57 8q-19 -23 -69.5 -65t-115 -91t-87.5 -69 q-20 10 -83 48.5t-96 55.5l4 334h-266q-233 0 -295 -14q11 57 11 92q0 53 -10.5 96.5t-22.5 55.5zM295 629h336v612q-210 -461 -336 -612z" />
<glyph unicode="5" horiz-adv-x="1058" d="M49 68q48 115 125.5 176t163.5 61q64 0 159.5 -24t133.5 -62q-2 7 -3 112t-1.5 248t-1.5 191q-204 -82 -328 -137q-18 10 -73.5 33t-78.5 34q35 91 35 324q0 144 -13 287.5t-28 191.5q234 -59 416 -59q124 0 213.5 11t175.5 50q-8 -58 -24.5 -100t-48 -80t-88 -58 t-136.5 -20q-50 0 -213 43q6 -52 6 -205q0 -35 -3 -103t-3 -103l320 118l166 -118q0 -736 20 -768q-119 -1 -275.5 -42.5t-230.5 -88.5q-102 120 -233 120q-75 0 -152 -32z" />
<glyph unicode="6" horiz-adv-x="1058" d="M109 111q1 10 13.5 83t21 133.5t16.5 173.5t8 232q0 165 -11 369.5t-32 261.5q5 0 15 -1t14 -1q214 0 415 143q120 -76 381 -125q-43 -81 -132 -129.5t-187 -48.5q-117 0 -191 68q6 -53 6 -103q0 -35 -3 -154.5t-3 -154.5l250 156q92 -106 246 -158q-31 -127 -31 -309 t33 -418q-130 -1 -267 -49t-200 -100q-51 32 -77.5 47.5t-76 38.5t-100 33.5t-108.5 11.5zM436 268l96 -71q6 16 25 33t36.5 27.5t36.5 20.5t21 11v508l-215 -140v-389z" />
<glyph unicode="7" horiz-adv-x="1046" d="M25 1075q62 110 87.5 196.5t37.5 233.5q178 -84 421 -84q233 0 455 74q-25 -73 -25 -131q0 -20 9 -61q-31 -41 -91.5 -119.5t-86.5 -113.5t-73 -99t-68 -97t-53.5 -85.5t-47 -87t-30.5 -78.5t-22 -83t-6 -79q0 -34 20 -66.5t46 -32.5q13 0 38 19.5t40 26.5 q43 -79 131 -111q-70 -6 -143 -96t-91 -205q-139 66 -238 180t-99 242q0 316 464 786q-160 -41 -266 -41q-103 0 -209 35q-22 -53 -57.5 -92t-85.5 -39q-26 0 -57 8z" />
<glyph unicode="8" horiz-adv-x="1087" d="M129 244q18 42 18 211q0 40 -1 140.5t-1 152.5l242 61l-242 20q0 230 -6 506q127 19 218.5 54.5t228.5 119.5q95 -81 192.5 -114.5t212.5 -36.5q0 -29 -18 -56t-37 -34v-439l-219 -20l172 -59l47 -58v-469q-81 -19 -155 -55t-126.5 -78.5t-86 -77t-54.5 -65.5 q-59 78 -186.5 174.5t-198.5 122.5zM416 401q4 -3 45 -30.5t97.5 -65t86.5 -57.5v434l-96 82l-133 -64v-299zM422 1331q1 -41 2 -176.5t2 -198.5l94 -90l127 29v297q-81 37 -225 139z" />
<glyph unicode="9" horiz-adv-x="1054" d="M106 104q43 82 132.5 130.5t187.5 48.5q116 0 190 -68q-6 52 -6 102q0 35 3 155t3 155l-249 -156q-92 106 -246 158q31 127 31 309t-33 418q130 1 267 49t200 100q51 -32 77.5 -47.5t76 -38.5t100 -33.5t108.5 -11.5q-1 -10 -13.5 -83t-21 -133.5t-16.5 -173.5t-8 -232 q0 -165 11 -369.5t32 -261.5q-5 0 -15 1t-14 1q-106 0 -214 -38.5t-202 -104.5q-118 75 -381 124zM406 688l215 139v390l-97 71q-6 -16 -24.5 -33t-36 -27.5t-37 -20.5t-20.5 -11v-508z" />
<glyph unicode=":" horiz-adv-x="583" d="M98 45q90 153 197 209q24 -28 89.5 -79.5t102.5 -74.5q-78 -56 -123.5 -101.5t-76.5 -109.5q-15 18 -50.5 47.5t-83 66t-55.5 42.5zM98 723q90 153 197 209q24 -28 89.5 -79.5t102.5 -74.5q-78 -56 -123.5 -101.5t-76.5 -109.5q-15 18 -50.5 47.5t-83 66t-55.5 42.5z" />
<glyph unicode=";" horiz-adv-x="546" d="M80 723q90 154 196 209q24 -28 90 -79t103 -75q-79 -56 -124.5 -101.5t-76.5 -109.5q-15 18 -50 47.5t-83 66.5t-55 42zM117 92q45 37 66.5 80t43.5 123q68 0 130 -54t69 -159q-16 -46 -27 -73.5t-32.5 -77t-44 -82t-53 -68.5t-69.5 -59t-83 -33q51 94 51 217 q0 115 -51 186z" />
<glyph unicode="&#x3c;" horiz-adv-x="950" d="M88 588v266l729 262v-209l-495 -186l495 -191v-208z" />
<glyph unicode="=" horiz-adv-x="1050" d="M139 205v282q74 -36 232 -36h309q157 0 231 36v-282q-95 35 -229 35h-313q-135 0 -230 -35zM139 614v283q76 -37 232 -37h309q155 0 231 37v-283q-95 35 -229 35h-313q-135 0 -230 -35z" />
<glyph unicode="&#x3e;" horiz-adv-x="950" d="M133 322v208l496 191l-496 186v209l729 -262v-266z" />
<glyph unicode="?" horiz-adv-x="1032" d="M47 1526q79 -33 152 -33q130 0 233 121q74 -47 230.5 -88.5t275.5 -42.5q-20 -32 -20 -609l-318 -208q0 -65 9.5 -148t25.5 -127h-328q33 71 33 137q0 130 -33 224l316 188q1 49 1.5 166.5t1.5 189t3 78.5q-38 -38 -133.5 -62t-159.5 -24q-86 0 -163.5 61.5t-125.5 176.5 zM272 45q90 153 197 209q24 -28 90 -79t103 -75q-79 -56 -124.5 -101.5t-76.5 -109.5q-15 18 -50.5 47.5t-83 66t-55.5 42.5z" />
<glyph unicode="@" horiz-adv-x="1488" d="M104 483q0 90 21.5 179t71.5 177t124 155t188 109t253 42q124 0 231.5 -32t183 -87t130 -127.5t80.5 -153.5t26 -165q0 -173 -117 -330q-73 -1 -129 -42.5t-75 -107.5q-127 0 -215 189l-80 -170q-162 95 -383 98q28 75 28 297q0 64 -7 153.5t-19 120.5q84 19 147 19 q137 0 301 -53v20l21 17h245v-27q-14 -3 -17 -37.5t-3 -138.5q0 -195 6 -246q33 31 88 37q43 81 43 149q0 97 -29.5 180t-87.5 147.5t-152.5 101t-215.5 36.5q-130 0 -223.5 -38.5t-146 -110t-76 -161.5t-23.5 -206q0 -238 132.5 -364.5t365.5 -126.5q71 0 124 12.5t56 40.5 l22 4q39 -121 113 -195q-229 -28 -295 -28q-161 0 -295.5 51t-224 140.5t-138.5 210.5t-49 261zM674 369q10 -1 33 -2t34.5 -2t32 -3.5t42.5 -6.5t50 -11v289q-76 26 -113 35.5t-75 9.5z" />
<glyph unicode="A" d="M-35 -61q77 13 164.5 161.5t146.5 354.5l66 229q-77 80 -160 132t-147 52q-10 0 -35 -2l-2 6q91 46 164 46q86 0 227 -78l111 379q18 60 18 104q0 43 -26.5 61.5t-90.5 18.5q-66 0 -200 -25q26 40 180 92t285 52t176 -56q67 4 156.5 29t115.5 41q-55 -78 -55 -219 q0 -157 60.5 -336t105.5 -209q0 -118 42.5 -256t109 -258t149.5 -219t162 -148l-2 -6q-293 106 -455 203q-52 -54 -90 -76t-109 -41q37 45 37 131q0 74 -43 211l-49 156q-121 -162 -219 -352q-19 27 -94.5 143t-128.5 191l-33 -107q-27 -89 -27 -166q0 -136 70 -239 q-23 9 -41.5 17t-36 18.5t-28 16.5t-28.5 21t-25 21.5t-29.5 27t-32.5 29.5q-83 -80 -168 -114.5t-191 -36.5zM596 645q56 -60 160 -192q14 18 72.5 93.5t86.5 115.5l-157 512z" />
<glyph unicode="B" horiz-adv-x="1394" d="M59 1479q166 -27 252 -27q191 0 340 119q42 -46 209 -107t303 -61q62 0 111 8q-40 -144 -88 -174q-4 -50 -4 -78q0 -123 37 -244q-27 -11 -132.5 -67.5t-173.5 -83.5q162 -31 277 -31q48 0 88 6l6 -10q-51 -124 -51 -274q0 -100 23 -207.5t65 -177.5 q-65 -11 -104.5 -18.5t-119 -29t-137 -46t-126 -66.5t-119.5 -94q-226 200 -639 243l-4 9q60 19 104 82t63 135t19 141q0 70 -16 157t-37 126q61 114 61 284q0 127 -37 256q-75 23 -118 77.5t-52 152.5zM526 412q0 -106 17 -222q46 -14 110 -42t97 -52q104 75 227 121 q-17 103 -25 326q-139 45 -219 65.5t-194 38.5q-13 -120 -13 -235zM543 1071q0 -174 4 -262q245 55 395 182q-4 66 -4 131q0 43 8 92q-244 3 -399 80q-4 -148 -4 -223z" />
<glyph unicode="C" horiz-adv-x="1277" d="M80 1524q242 -25 471 -25q174 0 361 14.5t216 14.5q28 0 52 -4q-20 -41 -47.5 -219.5t-38.5 -290.5l-15 -6q-68 51 -100.5 113.5t-50.5 162.5q-28 21 -68.5 28t-111.5 7q-40 0 -103 -2t-78 -2q-41 -221 -41 -676q0 -276 15 -446l346 -35q14 61 39 117t63.5 110t71 93 t84.5 95l12 -4q-10 -79 -10 -182q0 -210 35 -321q-79 -9 -151.5 -40t-170.5 -114q-338 102 -643 102q-62 0 -121 -20l-2 6q57 35 93 178t36 275q0 95 -19.5 178t-53.5 125q108 106 108 454q0 61 -6 136q-47 20 -98.5 71t-73.5 107z" />
<glyph unicode="D" horiz-adv-x="1437" d="M31 1509q25 0 72 1t69 1q252 0 399.5 6.5t290.5 28.5q64 -39 164 -80t195 -67q6 -93 18.5 -168t25 -119.5t41.5 -137t50 -167.5q-37 -76 -60.5 -224t-23.5 -257q0 -89 16 -146q-109 -20 -195.5 -92t-185.5 -199q-299 131 -850 131q32 16 79.5 67.5t86.5 120.5t39 118 q0 59 -1.5 96t-7.5 97.5t-22.5 109.5t-42.5 84q70 76 70 428q0 129 -43 196.5t-184 171.5zM528 778q0 -278 23 -573q112 -33 260 -58q29 45 77.5 84.5t102.5 63.5q2 116 26 286.5t58 229.5q-33 97 -72 247t-51 247q-88 -2 -208.5 -16.5t-206.5 -43.5q-9 -272 -9 -467z" />
<glyph unicode="E" horiz-adv-x="1275" d="M80 1524q242 -25 471 -25q174 0 361 14.5t216 14.5q28 0 52 -4q-20 -38 -47.5 -194.5t-38.5 -254.5l-15 -6q-68 37 -100 86.5t-51 128.5q-28 21 -68.5 28t-111.5 7q-40 0 -103 -2t-78 -2q-30 -162 -37 -438q65 -7 105 -7q80 0 166 121q7 -16 26.5 -71t40 -94t45.5 -58 q-54 -56 -120 -233q-82 151 -150 151t-117 -10v-37q0 -276 15 -446l346 -35q14 61 39 117t63.5 110t71 93t84.5 95l12 -4q-10 -79 -10 -182q0 -210 35 -321q-79 -9 -151.5 -40t-170.5 -114q-338 102 -643 102q-62 0 -121 -20l-2 6q57 35 93 178t36 275q0 95 -19.5 178 t-53.5 125q108 106 108 454q0 61 -6 136q-47 20 -98.5 71t-73.5 107z" />
<glyph unicode="F" horiz-adv-x="1343" d="M-37 1333q156 60 285 221q182 -61 280.5 -77.5t247.5 -16.5q-36 60 -39 121q224 -145 518 -145q66 0 134 10q-102 -91 -267.5 -157t-302.5 -66q-87 0 -209 8q-6 -41 -6 -131v-236q47 -8 92 -8q71 0 193 70q22 -15 73 -50.5t93.5 -63.5t83.5 -52q-36 -21 -77 -49 t-96.5 -68t-74.5 -53q-100 65 -186 65q-47 0 -99 -14q2 -78 2 -246q0 -111 40 -212t108 -144q-79 -37 -124.5 -80.5t-101.5 -118.5q-34 57 -113.5 110.5t-174.5 88.5q39 57 60.5 153t21.5 193q0 105 -24.5 196t-66.5 134q97 133 97 444q0 39 -4 117q-11 3 -47 14t-50.5 15 l-43.5 12t-45.5 11t-37 6t-36.5 3q-46 0 -101 -10z" />
<glyph unicode="G" horiz-adv-x="1333" d="M66 1524q242 -25 471 -25q174 0 371.5 14.5t226.5 14.5q27 0 51 -4q-23 -47 -54.5 -264t-31.5 -265q-78 53 -111.5 117t-54.5 172q-47 35 -221 35q-40 0 -92.5 -2t-67.5 -2q-31 -84 -31 -459q0 -118 3 -354t3 -326q34 -8 81.5 -20t67 -16.5t56.5 -11t78 -10t102 -7.5 q7 35 7 196q0 114 -7 240q-27 0 -89 16.5t-158 22.5q58 104 79 178q168 -33 295 -33q152 0 224 41q-1 -3 -48 -99t-47 -134q2 -38 5.5 -96t5.5 -93.5t5 -81.5t5.5 -75t5.5 -57.5t6 -45.5t6 -24q-97 -23 -182.5 -71t-200.5 -145q-107 65 -241.5 113.5t-298.5 91.5t-203 56 q61 16 94 114.5t33 227.5q0 95 -20 178t-54 125q109 107 109 454q0 61 -6 136q-47 20 -98.5 71t-73.5 107z" />
<glyph unicode="H" horiz-adv-x="1540" d="M37 1516q161 -35 299 -35q37 0 78 3.5t66.5 7t75 11t69.5 10.5q-58 -51 -85.5 -169.5t-27.5 -243.5v-260q99 -11 293 -11q92 0 209 9v295q0 105 -15 185t-55 175q73 -12 154 -12q112 0 362 32q-107 -64 -143 -270q-10 -51 -10 -172q0 -243 100 -315q-40 -75 -68 -172 t-28 -189q0 -128 21 -212t85 -124q-46 -17 -82.5 -39.5t-63.5 -51.5t-43.5 -51t-37.5 -56q-19 54 -91.5 112t-156.5 86q26 27 41.5 71t21.5 112.5t7.5 115.5t1.5 136v86q-117 12 -197 12q-158 0 -301 -17v-108q0 -145 27.5 -259.5t101.5 -219.5q-164 24 -293 24 q-130 0 -295 -22q111 66 185 270q16 49 16 127q0 108 -26 207t-76 162q55 102 77.5 190.5t22.5 186.5q0 57 -6 122q-21 6 -39 15q-153 64 -174 246z" />
<glyph unicode="I" horiz-adv-x="811" d="M84 -10q87 52 144 166t57 231q0 108 -26 206.5t-77 162.5q54 100 74 187.5t20 189.5q0 57 -6 122q-73 30 -104.5 97t-40.5 164q126 -35 237 -35q44 0 92.5 3.5t78.5 7t87.5 11t81.5 10.5q-79 -51 -116 -169t-37 -244q0 -216 59 -344q-55 -95 -55 -289q0 -145 36.5 -259.5 t133.5 -219.5q-196 24 -344 24q-130 0 -295 -22z" />
<glyph unicode="J" horiz-adv-x="782" d="M-125 -418q79 32 202 151.5t187 233.5q1 20 4 50t4.5 64t1.5 95q0 387 -81 457q81 125 81 414q0 66 -4.5 167.5t-5.5 131.5q-27 0 -89.5 16t-158.5 22q31 56 80 117q10 12 80 12q46 0 193 -8t198 -8q70 0 88 12q-4 -13 -49 -74.5t-45 -97.5q0 -37 -4 -131.5t-4 -156.5 q0 -288 74 -416q-60 -148 -60 -440q0 -238 54 -271v-10q-110 -61 -316.5 -201t-320.5 -235z" />
<glyph unicode="K" horiz-adv-x="1421" d="M80 -10q86 51 140 165t54 232q0 108 -26 207t-76 162q55 102 77.5 190.5t22.5 186.5q0 85 -6 149q-77 23 -115 74.5t-51 165.5q10 -3 32 -9.5t30.5 -9t27.5 -7.5t29.5 -7t29 -5t35 -4t38 -2t45.5 -1q88 0 123 3t133 19q-65 -113 -81 -244.5t-22 -519.5q52 28 110.5 68.5 t105.5 79t86 72.5t64 57t27 24q0 16 6.5 87t6.5 118q0 181 -74 250q74 -37 190 -37q32 0 71 19t87 38t100 19h23q-59 -60 -87 -156t-28 -196q0 -134 41 -234q-40 -12 -223 -119q22 -22 56.5 -47.5t61 -43t70 -44t60.5 -37.5q-21 -54 -21 -204q0 -119 20 -222t64 -147 q-86 -59 -129 -115t-75 -145q-40 164 -234 260q29 30 37 95.5t14 262.5q2 78 4 123q-17 10 -151 127l-268 -168q17 -324 65 -540q-94 47 -176 47q-43 0 -138 -19.5t-161 -19.5q-31 0 -45 2z" />
<glyph unicode="L" horiz-adv-x="1095" d="M47 1475q76 -9 146 -9q119 0 283.5 27t234.5 27q34 0 88 -7q-65 -1 -126 -65.5t-96.5 -160t-35.5 -187.5v-518q0 -133 19 -236.5t48 -132.5q-116 -44 -151 -109q18 -52 113 -139t212.5 -162t196.5 -98q-33 42 -94 162q188 -114 321.5 -159.5t272.5 -45.5q61 0 149 10 l8 -26q-237 -119 -536 -119q-91 0 -174 21.5t-145.5 56.5t-120.5 76.5t-109.5 83.5t-100.5 77t-105.5 56.5t-113.5 21.5q-65 0 -133 -12q79 92 119.5 227t40.5 287q0 238 -108 334q55 102 77.5 190.5t22.5 186.5q0 55 -3 94.5t-12.5 69.5t-18 47.5t-29.5 36t-35.5 28.5 t-48 30.5t-56.5 35.5z" />
<glyph unicode="M" horiz-adv-x="1863" d="M-33 -215q129 123 212 299t83 352q0 183 -92 320q100 190 100 344q0 241 -256 424q21 6 47 6q41 0 202 -28.5t290 -28.5q53 0 80 2q-34 -28 -61 -86.5t-27 -108.5l407 -702l340 690q-48 137 -139 213q29 -4 88 -4q215 0 547 61q-113 -81 -152 -185.5t-39 -252.5 q0 -145 105 -344q-40 -75 -68 -172t-28 -189q0 -108 39 -200.5t108 -135.5q-87 -44 -165 -115t-109 -134q-19 64 -99.5 140t-165.5 109q32 27 53 73t29.5 109.5t11.5 118.5t3 134v387l-398 -760l-34 6l-387 680v-313q0 -242 32 -356.5t119 -215.5q-91 25 -145 54t-144 102 q-62 -105 -149 -175t-238 -118z" />
<glyph unicode="N" horiz-adv-x="1572" d="M-23 -215q129 123 212 299t83 352q0 183 -92 320q101 192 101 344q0 241 -256 424q21 6 47 6q41 0 208.5 -28.5t290.5 -28.5q53 0 80 2q-112 -44 -127 -152q97 -241 227.5 -509t276.5 -486l41 -62q-3 63 -9.5 147.5t-6.5 112.5q0 86 -0.5 175t-2 163.5t-3 144t-2.5 122.5 t-2.5 92t-2 60t-0.5 20q-9 126 -129 172q27 -2 80 -2q139 0 308.5 28.5t213.5 28.5q27 0 48 -6q-256 -183 -255 -424q0 -154 99 -344q-107 -268 -107 -531q0 -150 25 -286q47 -51 90 -87t72 -54.5t66.5 -30t54 -14.5t53.5 -7l-53 135q170 -94 307.5 -143t302.5 -49 q142 0 268 18q-345 -135 -639 -135q-149 0 -288.5 39t-251 102.5t-217.5 157t-186 189.5t-157 214.5t-129.5 217t-105.5 210.5v-208q0 -242 32.5 -356.5t119.5 -215.5q-91 25 -145 54t-144 102q-58 -101 -152 -172.5t-244 -120.5z" />
<glyph unicode="O" horiz-adv-x="1415" d="M84 1434q128 9 290 47.5t267 85.5q96 -13 341.5 -79.5t285.5 -70.5q-54 -89 -54 -264q0 -118 29.5 -232t81.5 -182q-51 -63 -84 -174.5t-33 -224.5q0 -100 30 -180t93 -119q-129 -9 -295 -47.5t-270 -85.5q-96 13 -337.5 79t-281.5 70q52 49 52 226q0 151 -35 298 t-78 160q53 59 87 169.5t34 222.5q0 101 -30.5 183t-92.5 118zM453 618q0 -61 1 -197.5t1 -189.5q85 -47 139.5 -69.5t142.5 -38.5q50 25 97 42.5t74 25.5t34 12q10 543 10 700q0 226 -4 330q-59 33 -90.5 48.5t-80 32t-109.5 27.5q-50 -25 -97.5 -44t-75 -28.5t-34.5 -13.5 q-8 -180 -8 -637z" />
<glyph unicode="P" horiz-adv-x="1417" d="M66 1475q151 -23 237 -23q99 0 190 27.5t207 95.5q53 -46 258 -107t369 -61q59 0 111 8q-78 -166 -176 -223q-21 -154 -22 -252q0 -85 15 -146t52 -137q-125 -33 -195.5 -83t-138.5 -140q-53 19 -130.5 29.5t-135.5 12.5t-168 3v-84q0 -108 39 -200.5t108 -135.5 q-81 -56 -131 -119t-102 -161q-34 81 -114 157t-175 123q40 58 61 145t21 181q0 105 -24 196t-66 134q98 139 98 403q0 41 -4 115q-76 23 -125.5 83.5t-58.5 158.5zM535 1034q0 -215 2 -317q54 4 94 4q91 0 177 -11.5t116 -31.5q10 22 28.5 42t34.5 30q-2 43 -6.5 215.5 t-5.5 214.5q-78 14 -152.5 33.5t-156.5 45t-129 37.5q-2 -90 -2 -262z" />
<glyph unicode="Q" horiz-adv-x="1415" d="M84 1434q128 9 290 47.5t267 85.5q96 -13 341.5 -79.5t285.5 -70.5q-54 -89 -54 -264q0 -118 29.5 -232t81.5 -182q-51 -63 -84 -174.5t-33 -224.5q0 -100 30 -180t93 -119q-106 -8 -241 -35.5t-244 -64.5q53 -115 106 -166q33 20 80 71q30 -115 74.5 -198.5 t128.5 -151.5q-458 136 -688 459q-49 13 -154 42t-162 43t-84 17q52 49 52 226q0 151 -35 298t-78 160q53 59 87 169.5t34 222.5q0 101 -30.5 183t-92.5 118zM453 618q0 -61 1 -197.5t1 -189.5q85 -47 139.5 -69.5t142.5 -38.5q50 25 97 42.5t74 25.5t34 12q10 543 10 700 q0 226 -4 330q-59 33 -90.5 48.5t-80 32t-109.5 27.5q-50 -25 -97.5 -44t-75 -28.5t-34.5 -13.5q-8 -180 -8 -637z" />
<glyph unicode="R" horiz-adv-x="1441" d="M80 -10q87 52 144 166t57 231q0 108 -26 206.5t-77 162.5q98 182 98 391q0 57 -6 121q-178 25 -178 227q149 -33 254 -33q41 0 73.5 3.5t79.5 15t99 39t107 69.5q52 -45 259 -105.5t371 -60.5q53 0 111 9q-22 -47 -88 -97.5t-146 -81.5q-6 -27 -6 -61q0 -67 12.5 -145 t30.5 -123q-37 -11 -190 -99q136 -123 215 -172q-21 -54 -21 -204q0 -119 20 -222t64 -147q-79 -54 -125.5 -133t-85.5 -189q-23 95 -82.5 187.5t-144.5 134.5q29 30 37 95.5t14 262.5q2 78 4 123q-35 21 -153 117q-182 -108 -266 -160q16 -330 65 -538q-94 47 -176 47 q-43 0 -138 -19.5t-161 -19.5q-31 0 -45 2zM524 778q74 44 176 103.5t163.5 95.5t66.5 39l-10 252q-308 42 -392 63q-4 -111 -4 -391v-162z" />
<glyph unicode="S" horiz-adv-x="1208" d="M76 90q102 120 102 244q0 47 -10 86q35 -1 107.5 -37t204 -108t235.5 -121q41 112 41 317q0 190 -43 244q-245 -16 -543 -90q33 233 33 387q0 272 -111 420q8 -1 32 -5t54 -7t62 -3q119 0 200.5 42t137.5 138q76 -50 183.5 -87t221.5 -37q58 0 156 24 q-41 -111 -113.5 -183.5t-151.5 -72.5q-60 0 -174 35t-180 78q-61 -116 -61 -271q0 -107 30 -237q92 28 203 38.5t365 20.5q-19 -259 -19 -413q0 -269 45 -445q-107 0 -205 -33.5t-159 -91.5q-71 44 -138.5 73t-200.5 58t-304 37z" />
<glyph unicode="T" horiz-adv-x="1357" d="M-53 1391q104 31 173 74.5t150 117.5q205 -61 314 -77.5t276 -16.5q-36 60 -39 121q64 -41 121.5 -66.5t118 -35.5t101.5 -12.5t114 -2.5q43 0 117 8l4 -8q-108 -94 -238.5 -153.5t-257.5 -59.5q-57 0 -84 2q-6 -61 -6 -125q0 -111 2 -350t2 -375q0 -110 40 -208.5 t108 -141.5q-93 -42 -148.5 -89.5t-99.5 -129.5q-33 77 -102 128t-173 91q40 57 61 150.5t21 189.5q0 169 3 387.5t3 407.5q0 67 -4 102q-47 9 -129.5 25.5t-131 25.5t-110 17t-108.5 8q-11 0 -96 -11z" />
<glyph unicode="U" horiz-adv-x="1452" d="M106 1493q90 -8 133 -15t95.5 -25.5t77.5 -50.5t48.5 -87t39.5 -139q0 -169 -19 -461.5t-22 -392.5l155 -191q120 75 279 80q35 97 35 534q0 262 2 416q-5 112 -19 318q121 -39 238 -39q104 0 248 39q-11 -118 -67.5 -183t-133.5 -82q-4 -40 -4 -118q0 -129 34.5 -249.5 t69.5 -144.5q-118 -118 -118 -405q0 -54 4 -94q23 -5 59 -19q125 -64 141 -245q-215 65 -385 65q-187 0 -330 -32t-206 -70q-18 38 -67 90.5t-91 89t-129 108.5q8 49 8 138q0 144 -18 254.5t-49 132.5q104 132 104 391q0 226 -113 387z" />
<glyph unicode="V" horiz-adv-x="1574" d="M-39 1526q89 0 150.5 -8t98.5 -25.5t54.5 -31.5t40.5 -40q21 21 38 35t33 24.5t26.5 16.5t27.5 10.5t26 6.5t33 6t37 6q-57 -78 -57 -162q0 -13 4 -37l260 -1087l76 -80l74 78l213 1089q2 12 2 37q0 27 -14 60t-26.5 51.5t-35.5 50.5q100 -51 278 -51q60 0 164 25.5 t183 25.5q-21 -9 -57.5 -34t-93.5 -83t-104.5 -130.5t-82.5 -186.5t-35 -242q0 -28 0.5 -40t6 -36.5t17.5 -64.5q-55 -52 -92.5 -162t-50 -204t-12.5 -167q0 -6 1 -17t1 -14q-93 -58 -181 -139t-153 -160q-145 165 -360 289q2 4 2 23q0 77 -48 296.5t-117.5 460t-161 426 t-165.5 185.5z" />
<glyph unicode="W" horiz-adv-x="1914" d="M-10 1502q84 0 142 -7.5t94.5 -24t55.5 -31.5t42 -42q25 24 45.5 40t33.5 25.5t33.5 16t29 8.5t37 7t42.5 8q-56 -76 -56 -163q0 -18 3 -36l71 -1067l76 -80l164 282v381q0 141 -7 207.5t-23 102.5t-58 88q160 104 213 321q80 -225 221 -321q-49 -50 -69.5 -111 t-20.5 -211v-459l178 -280l74 77l78 1070q4 28 4 47q0 53 -19.5 95t-58.5 57q98 -31 268 -32q60 0 168.5 15.5t187.5 16.5q-78 -6 -145 -82t-104 -190t-37 -235q0 -144 63 -258q-110 -149 -110 -336q0 -129 28 -280q-305 -189 -395 -299q-82 93 -178.5 232.5t-134.5 209.5 q-4 -7 -73.5 -120t-124 -197t-87.5 -125q-34 38 -74 73t-91 68.5t-81 52.5t-91 53t-75 42q23 127 23 237q0 157 -17.5 348.5t-48.5 373.5t-83 306t-113 126z" />
<glyph unicode="X" horiz-adv-x="1417" d="M-63 1516q192 -2 298 -21.5t144 -62.5q26 47 78.5 64t142.5 20q-57 -74 -57 -136q0 -55 14 -86l174 -374l170 383q6 11 30.5 68.5t24.5 62.5q0 40 -49 69q85 -16 230 -16q45 0 149 7.5t164 11.5q-21 -4 -35.5 -8t-45 -18.5t-56 -35.5t-59.5 -61.5t-64 -94.5l-297 -534 l346 -541q47 -74 117 -133.5t137 -79.5q-192 2 -298 21.5t-144 62.5q-26 -47 -79 -64t-143 -20q68 93 68 152q0 28 -10 45l-185 364l-219 -455q-17 -37 -20 -71q0 -28 16 -47q-111 18 -166 18q-35 0 -83 -2.5t-123 -7.5t-132 -8q30 8 85 43t77 71l404 641l-351 560 q-45 74 -115 133.5t-138 79.5z" />
<glyph unicode="Y" horiz-adv-x="1550" d="M-35 1507q124 -1 196 -14.5t97.5 -30t58.5 -51.5q26 49 92.5 75.5t151.5 29.5q-59 -80 -59 -162q0 -13 4 -37l217 -508l78 -80l76 78l208 510q2 12 2 37q0 63 -77 162q104 -52 270 -52q52 0 146.5 26t177.5 26q-105 -63 -221.5 -227.5t-190 -329.5t-74.5 -250 q-37 -23 -69 -59t-70 -91t-53 -74q3 -125 35 -252.5t77 -177.5q-97 -65 -151 -122t-84 -138q-35 144 -273 260q52 77 79 194.5t30 233.5q-13 14 -54.5 58.5t-61 64.5t-52.5 48t-61 44q0 125 -62.5 287.5t-167 307t-215.5 214.5z" />
<glyph unicode="Z" horiz-adv-x="1386" d="M-33 -41l324 428q80 107 117 175t38 118q0 49 -45 100q54 12 104 39t107 79.5t118.5 143t123.5 215.5q-14 -2 -39 -2q-157 0 -375 36t-301 36q-45 0 -65 -4l-6 10q205 66 327 191q131 -18 217.5 -26t128 -9.5t117.5 -1.5q221 0 528 41q-278 -370 -380.5 -526t-102.5 -220 q0 -28 15.5 -46t48.5 -34q-5 0 -14 2t-13 1q-28 0 -54.5 -8t-52 -26.5t-44.5 -35.5t-45.5 -50t-42 -53.5t-44.5 -62.5l-204 -291q90 -31 158 -45t163 -14q-41 56 -41 123q222 -75 379 -84q143 0 268 20q-62 -74 -150.5 -126.5t-186 -77.5t-182 -35.5t-171.5 -10.5 q-125 0 -266.5 23.5t-161.5 25.5q-159 0 -295 -18z" />
<glyph unicode="[" horiz-adv-x="765" d="M147 -219q35 95 35 229v1374q0 135 -35 230h572v-174h-322v-1475h322v-184h-572z" />
<glyph unicode="\" horiz-adv-x="1212" d="M33 1501h315q0 -77 82 -229l559 -1045q51 -94 103.5 -152.5t83.5 -74.5h-316q0 77 -82 229l-559 1045q-51 94 -103 152.5t-83 74.5z" />
<glyph unicode="]" horiz-adv-x="765" d="M47 -35h322v1475h-322v174h571q-34 -92 -34 -230v-1374q0 -137 34 -229h-571v184z" />
<glyph unicode="^" horiz-adv-x="940" d="M59 1108q19 21 188 191t222 241q69 -84 163 -182t166.5 -168t82.5 -82q-22 -18 -59 -54t-56 -53q-283 272 -295 283q-38 -33 -143 -133.5t-154 -149.5q-19 17 -56 53t-59 54z" />
<glyph unicode="_" horiz-adv-x="1230" d="M117 -115q76 -37 231 -37h535q155 0 231 37v-282q-95 35 -229 35h-539q-134 0 -229 -35v282z" />
<glyph unicode="`" horiz-adv-x="430" d="M18 1440q38 24 104 75t89 78q55 -108 199 -329q-22 -18 -49 -44t-46 -42q-74 74 -166.5 155t-130.5 107z" />
<glyph unicode="a" horiz-adv-x="978" d="M68 41q28 75 28 297q0 104 -26 172q46 -6 98 -6q116 0 233.5 21t178.5 53v202q-69 -31 -145.5 -51t-125.5 -20q-77 0 -123.5 40.5t-72.5 155.5q6 0 17 -1t30 -1q135 0 244 25t176 63q69 -75 143.5 -110t173.5 -35q-30 -49 -40.5 -123t-10.5 -229q0 -130 9 -195 t27.5 -88.5t57.5 -32.5v-22q-53 -21 -121.5 -91t-93.5 -122q-83 54 -133 170l-141 -170q-162 95 -383 98zM369 193q10 -1 43.5 -2.5t51.5 -3t51 -6.5t67 -13v289q-119 -47 -209 -58z" />
<glyph unicode="b" horiz-adv-x="1087" d="M70 -27q35 65 48 191.5t13 365.5v709q0 108 -12 172.5t-49 130.5q43 -14 96 -14q123 0 303 86q-72 -86 -72 -320v-473q73 52 181 100.5t208 71.5q93 -101 224 -139q-14 -53 -21.5 -113t-8.5 -97.5t-1 -106.5q0 -353 35 -424q-92 -16 -209.5 -63.5t-208.5 -110.5 q-223 67 -326 67q-118 0 -200 -33zM379 182q37 -1 101 -14t110 -27q65 65 121 92q-6 59 -6 269q0 129 10 252q-80 -3 -175.5 -31t-142.5 -59v-123q0 -273 -18 -359z" />
<glyph unicode="c" horiz-adv-x="917" d="M61 68q28 42 45 155.5t17 249.5q0 238 -45 377q228 39 444 141q138 -87 340 -125q-38 -77 -107 -125.5t-141 -48.5q-47 0 -113 34t-128 91q20 -170 20 -309q0 -153 -20 -293q44 -19 114.5 -34.5t128.5 -20.5q12 78 65.5 136t137.5 83q-2 -23 -2 -115q0 -113 25 -207 q-65 -12 -144.5 -49.5t-109.5 -70.5q-72 46 -239 88t-288 43z" />
<glyph unicode="d" horiz-adv-x="1093" d="M76 829q162 27 377 175q123 -51 237 -62v297q0 108 -12 172.5t-49 130.5q43 -14 96 -14q123 0 303 86q-72 -86 -72 -320v-751q0 -151 9 -225.5t27 -101.5t57 -38v-22q-53 -21 -121.5 -91t-93.5 -122q-41 27 -77 73.5t-57 96.5q-69 -50 -180 -95t-217 -69 q-93 102 -223 139q14 53 21.5 113t8.5 98t1 107q0 352 -35 423zM375 188q78 3 173 31.5t142 59.5v481q-62 3 -170 41q-72 -63 -141 -92q6 -59 6 -269q0 -129 -10 -252z" />
<glyph unicode="e" horiz-adv-x="944" d="M59 68q31 49 46.5 168t15.5 235q0 185 -45 338q149 29 305 182q174 -36 450 -43q-6 -37 -6 -92q0 -90 15 -196t39 -168q-201 -15 -506 -66q-1 -48 -19 -217q43 -17 135.5 -32.5t161.5 -20.5q11 68 53 111.5t134 70.5q-2 -33 -2 -94q0 -121 24 -189q-85 -10 -204.5 -46.5 t-172.5 -74.5q-71 54 -206 93t-218 41zM352 807q20 -162 23 -272l239 59q-24 94 -24 178q-105 0 -238 35z" />
<glyph unicode="f" horiz-adv-x="753" d="M31 803v22q84 31 170 107v86q0 196 -6 258.5t-35 120.5q99 26 214.5 78.5t184.5 111.5q132 -70 383 -125q-63 -182 -180 -182q-93 0 -281 121l-41 -27q16 -58 21.5 -137.5t5.5 -259.5v-45h289v-8q-64 -67 -94 -162l-195 26v-516q0 -129 27 -178.5t100 -68.5v-25 q-135 -3 -254 -57q-96 53 -256 57v25q42 10 65 32t37.5 82t14.5 166v498h-170z" />
<glyph unicode="g" horiz-adv-x="1089" d="M37 -362q36 179 135 272q47 -4 175.5 -72t211.5 -133l154 49q-16 94 -21 400q-77 -56 -185.5 -103.5t-203.5 -68.5q-96 100 -223 139q19 58 25 122t6 193q0 314 -35 385q97 17 214 65.5t204 108.5q222 -67 325 -67q100 0 201 33q-34 -63 -48 -188.5t-14 -369.5v-354 q0 -256 19 -346q-114 0 -261 -65.5t-251 -163.5q-117 86 -218 125t-210 39zM375 221q74 3 171 30.5t146 59.5v82q0 251 19 359q-40 2 -104.5 14t-106.5 27q-53 -53 -121 -93q6 -58 6 -223q0 -166 -10 -256z" />
<glyph unicode="h" horiz-adv-x="1073" d="M80 1542q43 -14 96 -14q123 0 303 86q-71 -85 -71 -320v-553q162 105 301 250q79 -72 130 -109.5t130 -74.5q-16 -59 -22.5 -148.5t-6.5 -291.5q0 -267 18 -349q-75 -28 -161 -91t-150 -130l-12 13q21 73 37 211.5t16 195.5q0 78 -1 233.5t-1 233.5l-27 29l-251 -113 v-420q0 -128 55 -149v-31h-377v31q55 20 55 131v1077q0 108 -12 172.5t-49 130.5z" />
<glyph unicode="i" horiz-adv-x="542" d="M63 909v23q171 25 306 61l37 -61v-752q0 -128 55 -149v-31q-118 -19 -242 -57h-10q-70 98 -70 221v713zM82 1331q90 153 197 209q24 -28 89.5 -79.5t102.5 -74.5q-79 -57 -124.5 -101.5t-76.5 -108.5q-15 18 -50 47.5t-82.5 65t-55.5 42.5z" />
<glyph unicode="j" horiz-adv-x="544" d="M-57 -535q148 210 198 429v983l-75 32v23q169 25 305 61l37 -61v-772q0 -196 9.5 -270t43.5 -111v-8q-89 -30 -213 -124.5t-234 -226.5zM84 1331q90 153 197 209q24 -28 89.5 -79.5t102.5 -74.5q-79 -57 -124.5 -101.5t-76.5 -108.5q-15 18 -50 47.5t-82.5 65t-55.5 42.5 z" />
<glyph unicode="k" horiz-adv-x="1026" d="M80 1542q41 -14 96 -14q124 0 303 86q-71 -85 -71 -320v-426q74 48 182 156q117 -76 330 -119q-19 -62 -19 -143q0 -78 8 -109l-303 -114v-9q182 -37 342 -129q-14 -80 -14 -186q0 -113 14 -182q-83 -35 -174 -93t-139 -106l-17 6q20 54 35 148.5t15 171.5v170 q-116 80 -260 139v-289q0 -128 55 -149v-31h-377v31q55 19 55 131v1077q0 112 -13 175t-48 128zM408 555l313 127l-4 68l-309 61v-256z" />
<glyph unicode="l" horiz-adv-x="555" d="M37 -43q106 52 106 231v1051q0 108 -12 172.5t-49 130.5q43 -14 96 -14q123 0 303 86q-71 -85 -71 -320v-991q0 -113 12.5 -178.5t39.5 -112.5t91 -125l-12 -18q-40 19 -89 41t-67 30.5t-40.5 23.5t-43.5 36q-135 -57 -262 -57z" />
<glyph unicode="m" horiz-adv-x="1554" d="M68 909v23q169 25 305 61l37 -61v-168q156 112 276 248q80 -73 131 -110.5t129 -74.5l-12 -55q152 113 264 240q80 -73 131 -110.5t129 -74.5q-16 -58 -22 -147t-6 -293q0 -265 18 -348q-75 -28 -161 -91t-150 -130l-13 12q21 73 37.5 212.5t16.5 195.5q0 78 -1 233.5 t-1 233.5l-27 28l-229 -98q-2 -59 -2 -268v-187q0 -128 55 -149v-31h-365v31q56 20 56 131v543l-27 28l-227 -98v-455q0 -128 55 -149v-31h-377v31q55 20 55 131v715z" />
<glyph unicode="n" horiz-adv-x="1069" d="M66 909v23q169 25 305 61l37 -61v-170q162 105 301 250q80 -73 131 -110.5t129 -74.5q-16 -59 -22.5 -148.5t-6.5 -291.5q0 -265 18 -348q-75 -28 -161 -91t-150 -130l-12 12q21 73 37 212t16 196q0 78 -1 233.5t-1 233.5l-27 28l-251 -112v-441q0 -128 55 -149v-31h-377 v31q55 20 55 131v715z" />
<glyph unicode="o" horiz-adv-x="1046" d="M61 49q56 50 56 287q0 119 -16 263.5t-31 164.5q79 13 178 74.5t190 152.5q247 -80 410 -80q64 0 115 7q-25 -138 -25 -314q0 -224 37 -430q-101 -12 -223 -77.5t-207 -153.5q-45 35 -197.5 72.5t-241.5 37.5q-21 0 -45 -4zM362 803q19 -182 19 -311q0 -121 -10 -281 q178 -19 309 -59l4 579q-95 8 -186 28t-136 44z" />
<glyph unicode="p" horiz-adv-x="1095" d="M49 766v22q53 21 121.5 91t93.5 122q83 -54 133 -170q68 49 179.5 94.5t218.5 69.5q93 -102 223 -139q-14 -53 -21.5 -113t-8.5 -97.5t-1 -106.5q0 -353 35 -424q-164 -28 -377 -174q-119 49 -237 61v-207q0 -108 12 -172.5t49 -130.5q-43 14 -96 14q-123 0 -303 -86 q71 85 71 320v661q0 152 -8.5 225.5t-26.5 101t-57 38.5zM408 184q62 -3 170 -41q74 65 141 93q-6 59 -6 268q0 129 10 252q-78 -3 -173 -31t-142 -59v-482z" />
<glyph unicode="q" horiz-adv-x="1091" d="M74 821q92 16 209.5 63.5t208.5 110.5q223 -67 325 -67q119 0 201 33q-35 -65 -48.5 -193t-13.5 -365v-608q0 -107 12.5 -171.5t49.5 -131.5q-43 14 -96 14q-124 0 -304 -86q72 86 72 320v373q-73 -52 -181 -100.5t-208 -71.5q-93 102 -223 139q14 53 21.5 113t8.5 97.5 t1 106.5q0 353 -35 424zM373 180q80 3 175 31t142 59v123q0 269 19 359q-37 1 -101 14t-110 27q-66 -66 -121 -93q6 -59 6 -268q0 -129 -10 -252z" />
<glyph unicode="r" horiz-adv-x="849" d="M68 909v23q169 25 305 61l37 -61v-275q94 150 163 338q78 -50 269 -96q-18 -174 -105 -274l-137 71h-25l-165 -233v-283q0 -71 26 -103.5t90 -41.5v-35h-438v31q55 19 55 131v715z" />
<glyph unicode="s" horiz-adv-x="942" d="M47 35q3 63 25.5 129.5t54.5 107.5q92 0 414 -143q24 129 24 233q0 66 -2 84q-198 -17 -432 -79q12 140 12 223q0 178 -39 291q79 1 168 26t226 84q126 -66 385 -84q-37 -88 -84.5 -128t-116.5 -40q-62 0 -148.5 25.5t-144.5 60.5q-6 -65 -6 -135q0 -98 8 -155 q79 28 175 42.5t272 26.5q-7 -82 -7 -209q0 -246 19 -346q-126 0 -254 -31.5t-197 -78.5q-48 46 -124.5 67.5t-227.5 28.5z" />
<glyph unicode="t" horiz-adv-x="712" d="M12 803v22q84 31 170 107v65q0 46 -11 132.5t-24 105.5q82 5 157.5 33t178.5 82q-13 -35 -23.5 -146.5t-10.5 -163.5v-108h288v-8q-71 -74 -94 -162l-194 24v-452q0 -102 50 -157t132 -60v-29q-68 -23 -150.5 -67t-120.5 -78q-108 65 -178 98v762h-170z" />
<glyph unicode="u" horiz-adv-x="1085" d="M35 885l2 22q85 9 202 36t171 50q-15 -115 -15 -288v-414l86 -66l197 86v320q0 143 -16 187t-76 61v26q209 13 358 86v-483q0 -191 17.5 -255.5t74.5 -74.5v-22q-53 -23 -122.5 -92t-92.5 -121q-68 58 -98 107t-39 120q-121 -63 -190.5 -111t-135.5 -116 q-84 72 -134.5 108t-125.5 76q15 23 28 160t13 268q0 151 -22 221.5t-82 108.5z" />
<glyph unicode="v" horiz-adv-x="1013" d="M16 848v35q79 10 187 43.5t145 64.5q88 -125 88 -620q0 -117 -2 -178l103 -56h12q53 93 86 270.5t33 309.5q0 80 -17 121t-53 59l2 33q169 13 324 61q-4 -14 -4 -61q0 -134 45 -185l-199 -606l-254 -196h-20q-58 43 -147 81.5t-183 61.5q10 83 10 242q0 351 -96 508z" />
<glyph unicode="w" horiz-adv-x="1490" d="M16 848v35q88 10 192 44.5t138 63.5q68 -90 86 -620l6 -178l105 -56h12l86 88q10 54 10 172q0 321 -39 439l-59 12v35q88 10 192 44.5t138 63.5q28 -118 28 -381q0 -299 -12 -397l119 -92h12q43 77 78 256t35 328q0 86 -16 129t-54 63l2 33q177 13 324 61q-4 -8 -4 -61 q0 -140 45 -185l-180 -608l-236 -194h-20q-56 34 -297 174h-15l-174 -174h-20q-124 85 -340 143q12 54 12 205q0 384 -94 545z" />
<glyph unicode="x" horiz-adv-x="989" d="M41 879l258 112l270 -399l88 57q0 260 -49 336l17 6q108 -29 272 -55q-6 -70 -6 -117q0 -23 4 -121l-266 -190l346 -477l-289 -90l-274 411l-95 -67q0 -258 50 -336l-17 -6q-197 47 -272 57q12 68 12 121q0 31 -12 153l268 172z" />
<glyph unicode="y" horiz-adv-x="1089" d="M27 -362q36 179 135 272q47 -4 175.5 -72t211.5 -133l153 49q-16 91 -18 455q-121 -64 -188.5 -111.5t-130.5 -113.5q-83 72 -134.5 108t-126.5 76q15 22 28 152t13 255q0 142 -22 208.5t-82 101.5l2 22q85 9 202 36t171 50q-15 -115 -15 -288v-373l86 -66l197 86v279 q0 143 -16 187t-76 61v26q209 13 358 86v-942q0 -265 17 -346q-114 0 -261 -65.5t-251 -163.5q-117 86 -218 125t-210 39z" />
<glyph unicode="z" horiz-adv-x="935" d="M72 170l254 240h-213v22q71 28 163 113h195l172 162q-168 20 -338 20q-85 0 -123 -16.5t-61 -75.5l-23 16q2 91 21 180t51 150q226 -47 440 -47q74 0 138.5 12.5t93.5 30.5l26 -8q-28 -71 -28 -248l-199 -176h170v-15q-68 -68 -94 -161l-236 32l-221 -196q86 19 197 26 t225.5 7.5t155.5 3.5q4 -36 4 -64q0 -115 -35 -194q-24 7 -93.5 11.5t-111.5 4.5q-224 0 -314.5 -4t-178.5 -19q-9 16 -23 83t-14 110z" />
<glyph unicode="{" horiz-adv-x="684" d="M29 717q78 27 133 140t55 204q0 41 -4 97t-4 91q0 101 28.5 168.5t106.5 104.5q-65 40 -133 59q132 33 264 33q85 0 207 -17q-58 -11 -100 -32t-67.5 -47.5t-40.5 -64t-20 -75.5t-5 -88q0 -42 6 -119t6 -131q0 -65 -50.5 -165t-111.5 -156q50 -34 109 -143.5t59 -180.5 q0 -54 -6 -131t-6 -119q0 -50 5 -88t20 -75.5t40.5 -64t67.5 -47.5t100 -32q-157 -20 -237 -20q-117 0 -234 37q68 19 133 59q-78 37 -106.5 104t-28.5 168q0 35 4 91.5t4 97.5q0 104 -56 205.5t-138 136.5z" />
<glyph unicode="|" horiz-adv-x="579" d="M147 -76q37 76 37 232v1110q0 155 -37 231h283q-35 -95 -35 -229v-1114q0 -135 35 -230h-283z" />
<glyph unicode="}" horiz-adv-x="684" d="M-4 -162q58 11 100 32t67.5 47.5t40.5 64t20 75.5t5 88q0 42 -6 119t-6 131q0 71 59 180.5t109 143.5q-61 56 -111.5 156t-50.5 165q0 54 6.5 131t6.5 119q0 63 -9 108.5t-33.5 87.5t-72 70t-119.5 41q122 17 207 17q132 0 264 -33q-68 -19 -133 -59q78 -37 106.5 -104.5 t28.5 -168.5q0 -35 -4 -91t-4 -97q0 -91 55 -204t133 -140q-82 -35 -138 -136.5t-56 -205.5q0 -41 4 -97.5t4 -91.5q0 -101 -28.5 -168t-106.5 -104q65 -40 133 -59q-117 -37 -234 -37q-80 0 -237 20z" />
<glyph unicode="~" horiz-adv-x="1103" d="M137 338v258q61 6 146.5 50t126.5 93l288 -145q58 0 146 46.5t127 100.5v-262q-92 0 -162.5 -40t-108.5 -101l-292 145q-91 -1 -166 -44.5t-105 -100.5z" />
<glyph unicode="&#xa1;" horiz-adv-x="604" d="M109 991q7 5 55 42t83 66.5t50 47.5q31 -64 76.5 -109.5t124.5 -101.5q-37 -24 -103 -75t-90 -79q-106 55 -196 209zM143 -580q37 76 37 232v741q0 156 -37 232h328q-35 -95 -35 -230v-745q0 -135 35 -230h-328z" />
<glyph unicode="&#xa2;" horiz-adv-x="958" d="M80 68q27 42 44 155t17 250q0 238 -45 377q134 20 293 78q-4 103 -35 170h328q-27 -73 -33 -164q107 -46 232 -68q-38 -77 -107 -125.5t-141 -48.5q-47 0 -113.5 34t-128.5 91q21 -178 21 -309q0 -146 -21 -293q44 -19 115 -34.5t129 -20.5q12 78 65.5 136t137.5 83 q-2 -23 -2 -115q0 -117 24 -207q-104 -19 -213 -86q6 -88 35 -174h-328q37 78 37 221q-185 47 -311 50z" />
<glyph unicode="&#xa3;" horiz-adv-x="1064" d="M80 639v23q86 31 170 106v164q0 196 -6 258.5t-35 120.5q99 26 214.5 78.5t184.5 111.5q132 -70 383 -125q-63 -182 -180 -182q-93 0 -281 121l-41 -27q16 -58 21.5 -137.5t5.5 -259.5v-123h289v-8q-64 -67 -94 -162l-195 27v-250q0 -127 25.5 -177t93.5 -69h16 q63 0 168 44.5t142 96.5v-262q-92 0 -162.5 -40t-108.5 -101l-293 145q-91 -1 -165.5 -44.5t-104.5 -100.5v258q45 11 69.5 34t39 82.5t14.5 166.5v231h-170z" />
<glyph unicode="&#xa4;" horiz-adv-x="1144" d="M125 500q66 22 117 65q-21 59 -21 127q0 60 19 125q-55 43 -115 74l254 254q18 -58 70 -121q56 16 118 16q73 0 129 -18q48 55 72 121l254 -254q-63 -32 -119 -74q19 -62 19 -117q0 -57 -21 -129q51 -42 121 -67l-254 -254q-31 63 -76 117q-50 -15 -110 -15 q-75 0 -127 17q-43 -57 -76 -121zM381 692q0 -69 50.5 -127.5t141.5 -58.5q87 0 137 57.5t50 134.5q0 76 -50.5 131.5t-142.5 55.5q-88 0 -137 -58t-49 -135z" />
<glyph unicode="&#xa5;" horiz-adv-x="1681" d="M27 1536q91 -1 152 -8t98 -24.5t53 -30.5t41 -41q53 98 221 104q-57 -78 -57 -162q0 -13 4 -37l215 -514l75 -80l74 78l201 516q2 12 2 37q0 27 -14 60t-26.5 51.5t-35.5 50.5q100 -51 279 -51q60 0 163.5 25.5t182.5 25.5q-89 -55 -190.5 -187.5t-176.5 -275.5 t-106 -252l55 15v-287q-82 31 -227 35q-9 -11 -25 -32t-18 -24q0 -44 6 -96q188 0 264 37v-287q-85 31 -231 35q34 -151 73 -182q-164 -37 -231 -117q-37 38 -85 63t-83 33.5t-100 20.5q44 68 69 182q-142 -4 -225 -35v287h20q76 -37 238 -37q2 19 4 53t2 39l-55 60 q-135 -8 -209 -35v287l37 -9q-26 115 -97 264.5t-165 277t-172 167.5z" />
<glyph unicode="&#xa6;" horiz-adv-x="585" d="M150 -74q36 74 36 232v207q0 157 -36 231h282q-35 -95 -35 -229v-211q0 -135 35 -230h-282zM150 831q36 74 36 232v207q0 157 -36 231h282q-35 -95 -35 -229v-211q0 -135 35 -230h-282z" />
<glyph unicode="&#xa7;" horiz-adv-x="1042" d="M86 1315q0 94 33 194q285 27 434 111q177 -111 385 -125q-32 -88 -92 -129t-135 -41q-138 0 -226 129q-14 -31 -14 -84q0 -54 31 -155.5t81.5 -213t126.5 -215t154 -151.5q-18 -27 -18 -78q0 -75 58.5 -298.5t58.5 -307.5q0 -129 -58 -270q-129 0 -276.5 -32.5 t-214.5 -78.5q-137 132 -312 137q28 47 52 113t28 125q199 -3 332 -185q27 55 27 156q0 62 -36 170.5t-89 214.5t-121 188t-125 91q14 38 14 98q0 92 -49 324t-49 313zM233 1296q0 -82 50 -227.5t121 -305t142 -318t121 -300t50 -217.5q0 -40 -13 -106t-30 -96l71 16 q48 74 48 188q0 107 -50.5 262t-123 312t-145 311.5t-123 298t-50.5 232.5q0 74 10 124l-57 -10q-21 -51 -21 -164z" />
<glyph unicode="&#xa8;" horiz-adv-x="901" d="M20 1331q90 153 197 209q24 -28 90 -79t103 -75q-79 -57 -124.5 -101.5t-76.5 -108.5q-15 18 -50.5 47.5t-82.5 65t-56 42.5zM492 1331q90 154 196 209q24 -28 90 -79t103 -75q-79 -57 -124.5 -101.5t-76.5 -108.5q-15 18 -50 47.5t-82.5 65t-55.5 42.5z" />
<glyph unicode="&#xa9;" horiz-adv-x="1699" d="M100 756q0 114 27.5 220.5t87.5 202.5t146 168t211 114t274 42q153 0 279 -41t213 -111t146.5 -165.5t87 -201.5t27.5 -222q0 -114 -27.5 -221t-86.5 -203t-143 -168t-204.5 -114t-263.5 -42q-158 0 -288.5 42t-219 113t-149.5 166.5t-89 201.5t-28 219zM262 756 q0 -77 22.5 -156.5t71 -156t116.5 -136.5t166.5 -96.5t213.5 -36.5q112 0 208 34t164 92t116.5 133.5t72 159.5t23.5 169q0 111 -38 213.5t-109 185t-186 132.5t-257 50q-113 0 -210 -34t-165 -91.5t-116 -133.5t-70.5 -159t-22.5 -169zM512 399q17 29 34 82.5t17 108.5 q0 77 -39 180q14 27 28.5 84t14.5 111q0 29 -8.5 60.5t-21 62.5t-15.5 40q239 41 393 113q113 -71 273 -100q-33 -61 -88.5 -100.5t-112.5 -39.5q-103 0 -192 84q16 -134 16 -294q0 -146 -16 -252q94 -38 194 -45q18 106 189 159q0 -188 18 -258q-53 -8 -129 -40t-102 -58 q-55 35 -204.5 68.5t-248.5 33.5z" />
<glyph unicode="&#xaa;" horiz-adv-x="782" d="M96 823q21 59 21 209q0 69 -19 121q20 -4 68 -4q83 0 165 14t124 37v141q-112 -49 -191 -49q-52 0 -85 28.5t-52 109.5q5 0 12.5 -1.5t20.5 -1.5q185 0 295 62q49 -53 101 -78t120 -25q-21 -33 -28 -84.5t-7 -160.5q0 -90 7 -136t19.5 -62t39.5 -23v-15 q-37 -14 -85.5 -64t-64.5 -85q-62 38 -94 118l-98 -118q-115 67 -269 67zM307 930q87 -4 150 -17v201q-90 -33 -148 -39z" />
<glyph unicode="&#xab;" horiz-adv-x="1357" d="M49 475l412 457q6 -4 63.5 -12.5t96.5 -8.5q61 0 129 21q-23 -23 -111 -123t-183.5 -209t-109.5 -125q8 -9 108.5 -128t187.5 -220.5t110 -124.5q-79 21 -144 21q-66 0 -145 -21zM602 475l412 457q6 -4 63.5 -12.5t96.5 -8.5q62 0 129 21q-23 -23 -111 -123t-183.5 -209 t-109.5 -125q8 -9 108.5 -128t187.5 -220.5t110 -124.5q-79 21 -144 21t-145 -21z" />
<glyph unicode="&#xac;" horiz-adv-x="1236" d="M94 758v282q74 -36 232 -36h538q77 0 137 8q67 13 93 28v-573q-27 6 -129 6q-97 0 -127 -6l63 324h-645q-78 -5 -162 -33z" />
<glyph unicode="&#xad;" horiz-adv-x="1030" d="M129 492v282q76 -37 231 -37h310q155 0 231 37v-282q-92 34 -229 34h-314q-137 0 -229 -34z" />
<glyph unicode="&#xae;" horiz-adv-x="1005" d="M86 1198q0 80 25.5 153t74 132.5t130 95t184.5 35.5q107 0 189.5 -34.5t131.5 -93.5t74 -130.5t25 -151.5t-25 -153.5t-73 -132.5t-127 -94.5t-177 -35.5q-109 0 -194.5 35t-136 94t-76 130.5t-25.5 150.5zM184 1198q0 -52 20 -105.5t58 -101.5t102 -78t142 -30 q76 0 138 27.5t100 73.5t58.5 102.5t20.5 117.5q0 60 -20 115.5t-58.5 101t-102 72.5t-142.5 27q-77 0 -139 -28t-99.5 -74t-57.5 -102.5t-20 -117.5zM297 1028q25 40 25 174q0 64 -7.5 125t-17.5 76q45 3 121 24t108 35q51 -37 166 -37q0 -36 -20 -49q-2 -4 -2 -16 q0 -60 12 -92q-20 -13 -51 -27q15 -20 57 -53q-4 -6 -4 -68q0 -103 10 -141q-37 0 -78 -11t-65 -24q8 36 8 82q0 18 -1 68t-1 71l-35 35q-16 -9 -41 -22t-35 -19q9 -123 17 -178zM444 1245l101 47v72q-17 0 -32.5 3t-36 9t-32.5 8v-139z" />
<glyph unicode="&#xaf;" horiz-adv-x="710" d="M20 1284q9 83 9 111q0 27 -9 110q76 -37 232 -37h207q155 0 231 37q-8 -49 -8 -110q0 -62 8 -111q-95 35 -229 35h-211q-135 0 -230 -35z" />
<glyph unicode="&#xb0;" horiz-adv-x="708" d="M84 1034q29 26 29 144q0 59 -8.5 131.5t-16.5 81.5q48 9 116.5 41t108.5 73q124 -41 246 -41q11 0 57 4q-12 -68 -12 -157q0 -104 19 -215q-56 -7 -136 -41t-120 -74q-22 16 -118 35.5t-143 19.5q-4 0 -11.5 -1t-10.5 -1zM256 1391q8 -76 8 -136q0 -22 -4 -120 q139 -12 195 -29l2 248q-160 16 -201 37z" />
<glyph unicode="&#xb1;" horiz-adv-x="1054" d="M141 190v283q76 -37 232 -37h309q155 0 231 37v-283q-95 35 -229 35h-313q-135 0 -230 -35zM141 821v283q76 -37 232 -37h49v49q0 156 -37 232h283q-35 -95 -35 -230v-51h49q155 0 231 37v-283q-95 35 -229 35h-51v-51q0 -135 35 -230h-283q37 76 37 232v49h-51 q-135 0 -230 -35z" />
<glyph unicode="&#xb2;" horiz-adv-x="788" d="M82 1458q45 8 157.5 65.5t137.5 90.5q48 -40 142 -73.5t136 -33.5h9q-9 -18 -9 -57v-92q0 -29 8.5 -65.5t22.5 -55.5q-166 -31 -245.5 -72t-110.5 -123q8 2 26.5 8t32 8.5t31.5 2.5q53 0 109 -13.5t79 -25.5q38 33 84 33q13 0 37 -8l-135 -209q-29 20 -91.5 36.5 t-111.5 16.5q-55 0 -137 -20.5t-133 -59.5q-12 35 -12 96q0 80 29.5 151.5t79 123t111.5 86.5t128 49v137q-25 -23 -76.5 -37t-110.5 -14q-130 0 -188 55z" />
<glyph unicode="&#xb3;" horiz-adv-x="702" d="M78 930q10 36 10 76q0 45 -6 69q5 0 12.5 1t11.5 1q42 0 95 -30.5t82 -81.5l110 20q-1 5 -2 97.5t-2 99.5l-104 61l-95 -24l-43 71l43 68l95 -29l98 41q0 10 -1 48.5t-1 74.5q-56 -23 -127 -23q-115 0 -148 82q55 9 118 26.5t95 37.5q42 -29 119.5 -44.5t143.5 -15.5 q2 0 6.5 1.5t7.5 1.5q-23 -70 -23 -224q-27 -9 -90 -23.5t-90 -23.5q25 -14 72.5 -28t81 -22t33.5 -11q0 -42 8.5 -170t15.5 -139q-63 0 -192 -29.5t-166 -52.5q-16 18 -76.5 52.5t-91.5 41.5z" />
<glyph unicode="&#xb4;" horiz-adv-x="430" d="M18 1264q144 221 199 329q23 -27 89 -78t104 -75q-38 -26 -130.5 -107t-166.5 -155q-19 16 -46 42t-49 44z" />
<glyph unicode="&#xb5;" horiz-adv-x="1153" d="M88 885l2 22q85 9 202 36t171 50q-14 -107 -14 -288v-414l86 -66l196 86v320q0 143 -16 187t-76 61v26q209 13 358 86v-483q0 -191 18 -255.5t75 -74.5v-22q-53 -23 -123 -92t-93 -121q-68 58 -98 107t-39 120q-105 -55 -168 -96.5t-118 -91.5q10 -57 32.5 -93t61.5 -61 l-2 -23q-85 -9 -202 -36t-171 -50q25 181 25 449q0 58 -1 186.5t-1 200.5q0 151 -22.5 221.5t-82.5 108.5z" />
<glyph unicode="&#xb6;" horiz-adv-x="1347" d="M55 1497q393 -45 791 -45q160 0 241.5 7.5t202.5 31.5q-17 -113 -64 -169.5t-151 -90.5v-1348q0 -134 35 -229h-231q15 33 22.5 78t8.5 72t1 81v1342h-168v-1344q0 -134 35 -229h-254q37 76 37 231v672q-74 0 -104 -0.5t-78 -5.5t-90 -16q-43 47 -78.5 78.5t-79 64 t-74.5 59.5q29 279 29 428q0 182 -31 332z" />
<glyph unicode="&#xb7;" horiz-adv-x="522" d="M70 639q90 154 196 209q24 -28 90 -79t103 -75q-79 -56 -124.5 -101.5t-76.5 -109.5q-15 18 -50 47.5t-83 66.5t-55 42z" />
<glyph unicode="&#xb8;" horiz-adv-x="509" d="M20 -532q24 60 65.5 92t86.5 32q35 0 85 -12t71 -33q-1 5 -1.5 31.5t-1 71.5t-1.5 74q-49 8 -93 8q-43 0 -79 -8q-3 4 -37 38q2 31 2 95q0 194 -2 227h153v-246h125l86 -63q0 -268 10 -283q-62 -2 -145 -24t-121 -48q-54 66 -125 66q-43 0 -78 -18z" />
<glyph unicode="&#xb9;" horiz-adv-x="538" d="M20 1405q53 16 116 84.5t85 124.5q14 -16 32.5 -28.5t39.5 -20t35.5 -11.5t36.5 -8.5t28 -5.5v-514q0 -72 62 -72q12 0 26 7q-92 -92 -162 -150q-60 66 -120 94v504q-20 -33 -86 -33q-31 0 -58.5 8.5t-34.5 20.5z" />
<glyph unicode="&#xba;" horiz-adv-x="817" d="M88 829q39 36 39 201q0 84 -11 184.5t-22 114.5q55 10 124 53t134 107q168 -55 287 -55q60 0 80 4q-19 -97 -19 -219q0 -139 27 -301q-71 -9 -156 -55t-145 -107q-32 24 -138.5 51t-168.5 27q-11 0 -31 -5zM299 1358q12 -120 12 -219q0 -95 -6 -197q112 -11 215 -41 l4 406q-157 15 -225 51z" />
<glyph unicode="&#xbb;" horiz-adv-x="1357" d="M53 2q23 23 110 124.5t187.5 220.5t108.5 128q-14 16 -109.5 125t-183.5 209t-111 123q67 -21 129 -21q39 0 96.5 8.5t63.5 12.5l412 -457l-414 -473q-80 21 -145 21t-144 -21zM606 2q23 23 110 124.5t187.5 220.5t108.5 128q-14 16 -109.5 125t-183.5 209t-111 123 q68 -21 129 -21q39 0 96.5 8.5t63.5 12.5l412 -457l-414 -473q-79 21 -145 21q-65 0 -144 -21z" />
<glyph unicode="&#xbc;" horiz-adv-x="1593" d="M45 1405q53 16 116 84.5t85 124.5q14 -16 32.5 -28.5t39.5 -20t35.5 -11.5t36.5 -8.5t28 -5.5v-514q0 -72 61 -72q13 0 27 7q-92 -92 -162 -150q-33 36 -59 56.5t-62 37.5v504q-20 -33 -86 -33q-31 0 -57.5 8.5t-34.5 20.5zM213 0q61 32 149 227l523 1157 q12 29 30.5 97.5t18.5 107.5q0 13 -4 25h315q-61 -31 -149 -228l-523 -1157q-12 -29 -30.5 -97t-18.5 -107q0 -13 4 -25h-315zM907 356q15 10 78.5 93.5t128.5 187.5t74 151q48 -56 244 -75v-357h73q0 -97 21 -133q-8 7 -11.5 9t-10.5 4.5t-15.5 3t-24.5 0.5h-32v-41 q0 -72 59 -72q5 0 29 6q-11 -16 -94 -68.5t-97 -64.5q-68 58 -92 70l2 170h-119q-168 0 -200 -7q4 32 4 48q0 62 -17 75zM1094 356h153v273q-87 -194 -153 -273z" />
<glyph unicode="&#xbd;" horiz-adv-x="1587" d="M45 1405q53 16 116 84.5t85 124.5q14 -16 32.5 -28.5t39.5 -20t35.5 -11.5t36.5 -8.5t28 -5.5v-514q0 -72 61 -72q13 0 27 7q-92 -92 -162 -150q-33 36 -59 56.5t-62 37.5v504q-20 -33 -86 -33q-31 0 -57.5 8.5t-34.5 20.5zM213 0q61 32 149 227l523 1157 q12 29 30.5 97.5t18.5 107.5q0 13 -4 25h315q-61 -31 -149 -228l-523 -1157q-12 -29 -30.5 -97t-18.5 -107q0 -13 4 -25h-315zM879 647q45 8 157.5 65.5t137.5 90.5q48 -40 142 -73.5t136 -33.5h8q-8 -16 -8 -57v-92q0 -29 8.5 -65.5t22.5 -55.5q-166 -31 -246 -72 t-111 -123q7 2 26 8t33 8.5t32 2.5q53 0 109 -13.5t79 -25.5q38 33 84 33q13 0 37 -8l-135 -209q-29 20 -91.5 36.5t-111.5 16.5q-55 0 -137 -20.5t-133 -59.5q-13 38 -13 96q0 80 29.5 151.5t79 123t111.5 86.5t128 49v137q-25 -23 -76 -37t-110 -14q-130 0 -188 55z" />
<glyph unicode="&#xbe;" horiz-adv-x="1599" d="M63 930q11 40 11 76q0 45 -6 69q5 0 12.5 1t11.5 1q42 0 94.5 -30.5t81.5 -81.5l111 20q-1 5 -2 97.5t-2 99.5l-105 61l-94 -24l-43 71l43 68l94 -29l99 41q0 10 -1 48.5t-1 74.5q-56 -23 -127 -23q-115 0 -148 82q55 9 118 26.5t95 37.5q42 -29 119 -44.5t143 -15.5 q2 0 7 1.5t8 1.5q-23 -70 -23 -224q-27 -9 -90 -23.5t-90 -23.5q25 -14 72.5 -28t80.5 -22t33 -11q0 -41 9 -169.5t16 -139.5q-63 0 -192.5 -29.5t-166.5 -52.5q-16 18 -76.5 52.5t-91.5 41.5zM276 0q27 14 65.5 69.5t84.5 157.5l522 1157q12 29 30.5 97.5t18.5 107.5 q0 13 -4 25h316q-62 -32 -150 -228l-522 -1157q-12 -29 -30.5 -97t-18.5 -107q0 -13 4 -25h-316zM926 356q15 10 78.5 93.5t128 187.5t73.5 151q48 -56 244 -75v-357h74q0 -99 20 -133q-11 9 -15.5 11.5t-14.5 4t-31 1.5h-33v-41q0 -72 59 -72q5 0 29 6q-11 -16 -93.5 -68.5 t-96.5 -64.5q-67 57 -93 70l2 170h-118q-169 0 -201 -7q4 32 4 48q0 63 -16 75zM1112 356h154v273q-86 -191 -154 -273z" />
<glyph unicode="&#xbf;" horiz-adv-x="1026" d="M88 -449q11 18 16 238t5 371l317 209q0 65 -9.5 147.5t-25.5 126.5h328q-33 -71 -33 -137q0 -129 33 -223l-316 -189q-1 -49 -1.5 -166.5t-1.5 -189t-3 -78.5q38 38 133.5 62t159.5 24q86 0 163.5 -61.5t125.5 -176.5q-79 33 -152 33q-130 0 -233 -121 q-74 47 -230.5 88.5t-275.5 42.5zM365 934q78 56 123.5 101.5t76.5 109.5q15 -18 50.5 -47.5t83 -66t55.5 -42.5q-90 -153 -197 -209q-24 28 -89.5 79.5t-102.5 74.5z" />
<glyph unicode="&#xc0;" d="M-35 -61q77 13 164.5 161.5t146.5 354.5l66 229q-77 80 -160 132t-147 52q-10 0 -35 -2l-2 6q91 46 164 46q86 0 227 -78l111 379q18 60 18 104q0 43 -26.5 61.5t-90.5 18.5q-66 0 -200 -25q26 40 180 92t285 52t176 -56q67 4 156.5 29t115.5 41q-55 -78 -55 -219 q0 -157 60.5 -336t105.5 -209q0 -118 42.5 -256t109 -258t149.5 -219t162 -148l-2 -6q-293 106 -455 203q-52 -54 -90 -76t-109 -41q37 45 37 131q0 74 -43 211l-49 156q-121 -162 -219 -352q-19 27 -94.5 143t-128.5 191l-33 -107q-27 -89 -27 -166q0 -136 70 -239 q-23 9 -41.5 17t-36 18.5t-28 16.5t-28.5 21t-25 21.5t-29.5 27t-32.5 29.5q-83 -80 -168 -114.5t-191 -36.5zM389 1704q20 34 53.5 112.5t40.5 114.5q53 -36 218 -112.5t178 -83.5q-11 -25 -22.5 -60.5t-20.5 -58.5q-92 27 -239.5 54.5t-207.5 33.5zM596 645 q56 -60 160 -192q14 18 72.5 93.5t86.5 115.5l-157 512z" />
<glyph unicode="&#xc1;" d="M-35 -61q77 13 164.5 161.5t146.5 354.5l66 229q-77 80 -160 132t-147 52q-10 0 -35 -2l-2 6q91 46 164 46q86 0 227 -78l111 379q18 60 18 104q0 43 -26.5 61.5t-90.5 18.5q-66 0 -200 -25q26 40 180 92t285 52t176 -56q67 4 156.5 29t115.5 41q-55 -78 -55 -219 q0 -157 60.5 -336t105.5 -209q0 -118 42.5 -256t109 -258t149.5 -219t162 -148l-2 -6q-293 106 -455 203q-52 -54 -90 -76t-109 -41q37 45 37 131q0 74 -43 211l-49 156q-121 -162 -219 -352q-19 27 -94.5 143t-128.5 191l-33 -107q-27 -89 -27 -166q0 -136 70 -239 q-23 9 -41.5 17t-36 18.5t-28 16.5t-28.5 21t-25 21.5t-29.5 27t-32.5 29.5q-83 -80 -168 -114.5t-191 -36.5zM596 645q56 -60 160 -192q14 18 72.5 93.5t86.5 115.5l-157 512zM614 1735q13 7 178 83.5t218 112.5q7 -36 40.5 -114.5t53.5 -112.5q-60 -6 -207.5 -33.5 t-239.5 -54.5q-9 23 -20.5 58.5t-22.5 60.5z" />
<glyph unicode="&#xc2;" d="M-35 -61q77 13 164.5 161.5t146.5 354.5l66 229q-77 80 -160 132t-147 52q-10 0 -35 -2l-2 6q91 46 164 46q86 0 227 -78l111 379q18 60 18 104q0 43 -26.5 61.5t-90.5 18.5q-66 0 -200 -25q26 40 180 92t285 52t176 -56q67 4 156.5 29t115.5 41q-55 -78 -55 -219 q0 -157 60.5 -336t105.5 -209q0 -118 42.5 -256t109 -258t149.5 -219t162 -148l-2 -6q-293 106 -455 203q-52 -54 -90 -76t-109 -41q37 45 37 131q0 74 -43 211l-49 156q-121 -162 -219 -352q-19 27 -94.5 143t-128.5 191l-33 -107q-27 -89 -27 -166q0 -136 70 -239 q-23 9 -41.5 17t-36 18.5t-28 16.5t-28.5 21t-25 21.5t-29.5 27t-32.5 29.5q-83 -80 -168 -114.5t-191 -36.5zM408 1696q38 28 161 109t187 130q309 -204 350 -239q-18 -15 -32 -27.5t-30.5 -28.5t-31.5 -30q-102 57 -254 110q-154 -53 -256 -110q-19 17 -45.5 42.5 t-48.5 43.5zM596 645q56 -60 160 -192q14 18 72.5 93.5t86.5 115.5l-157 512z" />
<glyph unicode="&#xc3;" d="M-35 -61q77 13 164.5 161.5t146.5 354.5l66 229q-77 80 -160 132t-147 52q-10 0 -35 -2l-2 6q91 46 164 46q86 0 227 -78l111 379q18 60 18 104q0 43 -26.5 61.5t-90.5 18.5q-66 0 -200 -25q26 40 180 92t285 52t176 -56q67 4 156.5 29t115.5 41q-55 -78 -55 -219 q0 -157 60.5 -336t105.5 -209q0 -118 42.5 -256t109 -258t149.5 -219t162 -148l-2 -6q-293 106 -455 203q-52 -54 -90 -76t-109 -41q37 45 37 131q0 74 -43 211l-49 156q-121 -162 -219 -352q-19 27 -94.5 143t-128.5 191l-33 -107q-27 -89 -27 -166q0 -136 70 -239 q-23 9 -41.5 17t-36 18.5t-28 16.5t-28.5 21t-25 21.5t-29.5 27t-32.5 29.5q-83 -80 -168 -114.5t-191 -36.5zM414 1604v237q58 3 128.5 29.5t123.5 58.5l186 -90q44 3 93.5 19.5t77.5 30.5t81 42v-241q-163 -3 -250 -86l-190 90q-158 -2 -250 -90zM596 645q56 -60 160 -192 q14 18 72.5 93.5t86.5 115.5l-157 512z" />
<glyph unicode="&#xc4;" d="M-35 -61q77 13 164.5 161.5t146.5 354.5l66 229q-77 80 -160 132t-147 52q-10 0 -35 -2l-2 6q91 46 164 46q86 0 227 -78l111 379q18 60 18 104q0 43 -26.5 61.5t-90.5 18.5q-66 0 -200 -25q26 40 180 92t285 52t176 -56q67 4 156.5 29t115.5 41q-55 -78 -55 -219 q0 -157 60.5 -336t105.5 -209q0 -118 42.5 -256t109 -258t149.5 -219t162 -148l-2 -6q-293 106 -455 203q-52 -54 -90 -76t-109 -41q37 45 37 131q0 74 -43 211l-49 156q-121 -162 -219 -352q-19 27 -94.5 143t-128.5 191l-33 -107q-27 -89 -27 -166q0 -136 70 -239 q-23 9 -41.5 17t-36 18.5t-28 16.5t-28.5 21t-25 21.5t-29.5 27t-32.5 29.5q-83 -80 -168 -114.5t-191 -36.5zM381 1749q81 136 176 186q21 -25 78.5 -69t93.5 -68q-70 -51 -111 -91t-69 -97q-10 13 -34 34t-46 38t-51.5 39t-36.5 28zM596 645q56 -60 160 -192 q14 18 72.5 93.5t86.5 115.5l-157 512zM788 1749q81 135 177 186q21 -25 78.5 -69t93.5 -68q-71 -51 -112 -91t-69 -97q-10 13 -34 34t-46 38t-51.5 39t-36.5 28z" />
<glyph unicode="&#xc5;" d="M-35 -61q77 13 164.5 161.5t146.5 354.5l66 229q-77 80 -160 132t-147 52q-10 0 -35 -2l-2 6q91 46 164 46q86 0 227 -78l111 379q18 60 18 104q0 43 -26.5 61.5t-90.5 18.5q-66 0 -200 -25q26 40 180 92t285 52t176 -56q67 4 156.5 29t115.5 41q-55 -78 -55 -219 q0 -157 60.5 -336t105.5 -209q0 -118 42.5 -256t109 -258t149.5 -219t162 -148l-2 -6q-293 106 -455 203q-52 -54 -90 -76t-109 -41q37 45 37 131q0 74 -43 211l-49 156q-121 -162 -219 -352q-19 27 -94.5 143t-128.5 191l-33 -107q-27 -89 -27 -166q0 -136 70 -239 q-23 9 -41.5 17t-36 18.5t-28 16.5t-28.5 21t-25 21.5t-29.5 27t-32.5 29.5q-83 -80 -168 -114.5t-191 -36.5zM588 1772q0 66 45 114.5t125 48.5q81 0 125.5 -47t44.5 -112q0 -68 -43.5 -117t-120.5 -49q-84 0 -130 47.5t-46 114.5zM596 645q56 -60 160 -192 q14 18 72.5 93.5t86.5 115.5l-157 512zM713 1772q0 -16 12.5 -28.5t34.5 -12.5q18 0 28.5 12.5t10.5 30.5q0 16 -10.5 28.5t-30.5 12.5t-32.5 -13.5t-12.5 -29.5z" />
<glyph unicode="&#xc6;" horiz-adv-x="1902" d="M-49 -61q53 6 114.5 83.5t113.5 185.5t104 247l98 264q-198 67 -385 67q60 24 145 37t142 13q92 0 141 -2l143 385q19 53 19 110q0 36 -41.5 55t-102.5 19q-60 0 -194 -25q22 35 170.5 69t286.5 34q137 0 223 -19q126 6 211.5 29t152.5 70q100 -48 159 -66t134 -18 q94 0 199 24q-1 -66 -24.5 -117.5t-61.5 -80t-79 -42.5t-83 -14q-23 0 -42 3t-43.5 14.5t-36 17t-47 27t-48.5 28.5q-14 -12 -35 -26t-49.5 -32t-42.5 -28v-346q62 -10 96 -10q43 0 76 14.5t76 44.5q6 -5 40 -36t52.5 -47t52 -39.5t64.5 -38.5q-26 -12 -56.5 -33 t-51.5 -37.5t-53.5 -43.5t-45.5 -38q-80 70 -146 70q-42 0 -98 -15q-16 -91 -16 -227q0 -78 16 -190q18 -12 83 -61t130 -95q4 5 32.5 22t55 31t27.5 14q-14 106 -27 134q88 80 165 129.5t173 89.5q-45 -80 -45 -246q0 -118 25 -166q-75 -36 -107.5 -53t-85 -50t-99 -74.5 t-106.5 -103.5q-70 54 -238 135.5t-304 125.5q9 97 12 309q-106 103 -258 188l-103 -264q-43 -108 -43 -197q0 -104 66 -208q-23 9 -41.5 17t-36 18.5t-28 16.5t-28.5 21t-25 21.5t-29.5 27t-32.5 29.5q-87 -80 -177 -114.5t-202 -36.5zM705 803q103 -18 184 -58 q0 391 2 506l-4 25z" />
<glyph unicode="&#xc7;" horiz-adv-x="1282" d="M84 1524q242 -25 471 -25q174 0 361.5 14.5t216.5 14.5q27 0 51 -4q-20 -41 -47.5 -219.5t-38.5 -290.5l-15 -6q-68 51 -100.5 113.5t-50.5 162.5q-28 21 -68.5 28t-111.5 7q-40 0 -103 -2t-78 -2q-41 -221 -41 -676q0 -276 15 -446l346 -35q14 61 39 117t63.5 110t71 93 t84.5 95l12 -4q-10 -79 -10 -182q0 -210 35 -321q-79 -9 -151.5 -40t-170.5 -114q-54 17 -129 35v-109h125l86 -63q0 -268 10 -283q-62 -2 -145 -24t-121 -48q-54 66 -125 66q-43 0 -78 -18q24 60 65.5 92t86.5 32q35 0 85 -12t71 -33q-1 5 -1.5 31.5t-1 71.5t-1.5 74 q-62 8 -93 8q-44 0 -80 -8l-36 38q2 31 2 218q-194 34 -363 34q-62 0 -121 -20l-2 6q57 35 93 178t36 275q0 95 -19.5 178t-53.5 125q108 106 108 454q0 61 -6 136q-47 20 -98.5 71t-73.5 107z" />
<glyph unicode="&#xc8;" horiz-adv-x="1275" d="M80 1524q242 -25 471 -25q174 0 361 14.5t216 14.5q28 0 52 -4q-20 -38 -47.5 -194.5t-38.5 -254.5l-15 -6q-68 37 -100 86.5t-51 128.5q-28 21 -68.5 28t-111.5 7q-40 0 -103 -2t-78 -2q-30 -162 -37 -438q65 -7 105 -7q80 0 166 121q7 -16 26.5 -71t40 -94t45.5 -58 q-54 -56 -120 -233q-82 151 -150 151t-117 -10v-37q0 -276 15 -446l346 -35q14 61 39 117t63.5 110t71 93t84.5 95l12 -4q-10 -79 -10 -182q0 -210 35 -321q-79 -9 -151.5 -40t-170.5 -114q-338 102 -643 102q-62 0 -121 -20l-2 6q57 35 93 178t36 275q0 95 -19.5 178 t-53.5 125q108 106 108 454q0 61 -6 136q-47 20 -98.5 71t-73.5 107zM283 1704q20 34 53.5 112.5t40.5 114.5q53 -36 218 -112.5t177 -83.5q-11 -25 -22.5 -60.5t-20.5 -58.5q-92 27 -239.5 54.5t-206.5 33.5z" />
<glyph unicode="&#xc9;" horiz-adv-x="1275" d="M80 1524q242 -25 471 -25q174 0 361 14.5t216 14.5q28 0 52 -4q-20 -38 -47.5 -194.5t-38.5 -254.5l-15 -6q-68 37 -100 86.5t-51 128.5q-28 21 -68.5 28t-111.5 7q-40 0 -103 -2t-78 -2q-30 -162 -37 -438q65 -7 105 -7q80 0 166 121q7 -16 26.5 -71t40 -94t45.5 -58 q-54 -56 -120 -233q-82 151 -150 151t-117 -10v-37q0 -276 15 -446l346 -35q14 61 39 117t63.5 110t71 93t84.5 95l12 -4q-10 -79 -10 -182q0 -210 35 -321q-79 -9 -151.5 -40t-170.5 -114q-338 102 -643 102q-62 0 -121 -20l-2 6q57 35 93 178t36 275q0 95 -19.5 178 t-53.5 125q108 106 108 454q0 61 -6 136q-47 20 -98.5 71t-73.5 107zM508 1735q12 7 177 83.5t218 112.5q7 -36 40.5 -114.5t53.5 -112.5q-59 -6 -206.5 -33.5t-239.5 -54.5q-9 23 -20.5 58.5t-22.5 60.5z" />
<glyph unicode="&#xca;" horiz-adv-x="1275" d="M80 1524q242 -25 471 -25q174 0 361 14.5t216 14.5q28 0 52 -4q-20 -38 -47.5 -194.5t-38.5 -254.5l-15 -6q-68 37 -100 86.5t-51 128.5q-28 21 -68.5 28t-111.5 7q-40 0 -103 -2t-78 -2q-30 -162 -37 -438q65 -7 105 -7q80 0 166 121q7 -16 26.5 -71t40 -94t45.5 -58 q-54 -56 -120 -233q-82 151 -150 151t-117 -10v-37q0 -276 15 -446l346 -35q14 61 39 117t63.5 110t71 93t84.5 95l12 -4q-10 -79 -10 -182q0 -210 35 -321q-79 -9 -151.5 -40t-170.5 -114q-338 102 -643 102q-62 0 -121 -20l-2 6q57 35 93 178t36 275q0 95 -19.5 178 t-53.5 125q108 106 108 454q0 61 -6 136q-47 20 -98.5 71t-73.5 107zM301 1696q38 28 161 109t187 130q309 -204 350 -239q-18 -15 -32 -27.5t-30.5 -28.5t-31.5 -30q-102 57 -254 110q-154 -53 -256 -110q-19 17 -45.5 42.5t-48.5 43.5z" />
<glyph unicode="&#xcb;" horiz-adv-x="1275" d="M80 1524q242 -25 471 -25q174 0 361 14.5t216 14.5q28 0 52 -4q-20 -38 -47.5 -194.5t-38.5 -254.5l-15 -6q-68 37 -100 86.5t-51 128.5q-28 21 -68.5 28t-111.5 7q-40 0 -103 -2t-78 -2q-30 -162 -37 -438q65 -7 105 -7q80 0 166 121q7 -16 26.5 -71t40 -94t45.5 -58 q-54 -56 -120 -233q-82 151 -150 151t-117 -10v-37q0 -276 15 -446l346 -35q14 61 39 117t63.5 110t71 93t84.5 95l12 -4q-10 -79 -10 -182q0 -210 35 -321q-79 -9 -151.5 -40t-170.5 -114q-338 102 -643 102q-62 0 -121 -20l-2 6q57 35 93 178t36 275q0 95 -19.5 178 t-53.5 125q108 106 108 454q0 61 -6 136q-47 20 -98.5 71t-73.5 107zM264 1749q81 136 176 186q21 -25 78.5 -69t93.5 -68q-70 -51 -111 -91t-69 -97q-10 13 -34 34t-46 38t-51.5 39t-36.5 28zM672 1749q81 136 176 186q21 -25 78.5 -69t93.5 -68q-70 -51 -111 -91t-69 -97 q-10 13 -34 34t-46 38t-51.5 39t-36.5 28z" />
<glyph unicode="&#xcc;" horiz-adv-x="811" d="M43 1704q20 34 53.5 112.5t40.5 114.5q53 -36 218 -112.5t177 -83.5q-11 -25 -22.5 -60.5t-20.5 -58.5q-92 27 -239.5 54.5t-206.5 33.5zM84 -10q87 52 144 166t57 231q0 108 -26 206.5t-77 162.5q54 100 74 187.5t20 189.5q0 57 -6 122q-73 30 -104.5 97t-40.5 164 q126 -35 237 -35q44 0 92.5 3.5t78.5 7t87.5 11t81.5 10.5q-79 -51 -116 -169t-37 -244q0 -216 59 -344q-55 -95 -55 -289q0 -145 36.5 -259.5t133.5 -219.5q-196 24 -344 24q-130 0 -295 -22z" />
<glyph unicode="&#xcd;" horiz-adv-x="811" d="M84 -10q87 52 144 166t57 231q0 108 -26 206.5t-77 162.5q54 100 74 187.5t20 189.5q0 57 -6 122q-73 30 -104.5 97t-40.5 164q126 -35 237 -35q44 0 92.5 3.5t78.5 7t87.5 11t81.5 10.5q-79 -51 -116 -169t-37 -244q0 -216 59 -344q-55 -95 -55 -289q0 -145 36.5 -259.5 t133.5 -219.5q-196 24 -344 24q-130 0 -295 -22zM268 1735q13 7 178 83.5t218 112.5q7 -36 40.5 -114.5t53.5 -112.5q-60 -6 -207.5 -33.5t-239.5 -54.5q-9 23 -20.5 58.5t-22.5 60.5z" />
<glyph unicode="&#xce;" horiz-adv-x="811" d="M61 1696q38 28 161.5 109t187.5 130q309 -204 350 -239q-18 -15 -32 -27.5t-30.5 -28.5t-31.5 -30q-102 57 -254 110q-154 -53 -256 -110q-19 16 -46 42t-49 44zM84 -10q87 52 144 166t57 231q0 108 -26 206.5t-77 162.5q54 100 74 187.5t20 189.5q0 57 -6 122 q-73 30 -104.5 97t-40.5 164q126 -35 237 -35q44 0 92.5 3.5t78.5 7t87.5 11t81.5 10.5q-79 -51 -116 -169t-37 -244q0 -216 59 -344q-55 -95 -55 -289q0 -145 36.5 -259.5t133.5 -219.5q-196 24 -344 24q-130 0 -295 -22z" />
<glyph unicode="&#xcf;" horiz-adv-x="811" d="M25 1749q81 136 176 186q21 -25 78.5 -69t93.5 -68q-70 -51 -111 -91t-69 -97q-10 13 -34 34t-46 38t-51.5 39t-36.5 28zM84 -10q87 52 144 166t57 231q0 108 -26 206.5t-77 162.5q54 100 74 187.5t20 189.5q0 57 -6 122q-73 30 -104.5 97t-40.5 164q126 -35 237 -35 q44 0 92.5 3.5t78.5 7t87.5 11t81.5 10.5q-79 -51 -116 -169t-37 -244q0 -216 59 -344q-55 -95 -55 -289q0 -145 36.5 -259.5t133.5 -219.5q-196 24 -344 24q-130 0 -295 -22zM432 1749q81 136 176 186q21 -25 78.5 -69t93.5 -68q-70 -51 -111 -91t-69 -97q-10 13 -34 34 t-46 38t-51.5 39t-36.5 28z" />
<glyph unicode="&#xd0;" horiz-adv-x="1470" d="M55 578v266q71 -37 207 -37q29 111 29 334q0 89 -20.5 146t-65 103.5t-142.5 118.5q25 0 72.5 1t69.5 1q252 0 399.5 6.5t290.5 28.5q64 -39 163.5 -80t194.5 -67q6 -93 18.5 -168t25.5 -119.5t42 -136.5t50 -168q-37 -76 -60.5 -224t-23.5 -257q0 -89 16 -146 q-109 -20 -195.5 -92t-185.5 -199q-299 131 -850 131q32 16 79.5 67.5t86.5 120.5t39 118q0 190 -27 286q-129 -3 -213 -34zM561 610q7 -212 23 -405q112 -33 260 -58q29 45 77.5 84.5t102.5 63.5q2 116 26 286.5t58 229.5q-33 97 -72 247t-51 247q-88 -2 -209 -16.5 t-207 -43.5q-8 -230 -8 -438q102 7 162 37v-266q-80 26 -162 32z" />
<glyph unicode="&#xd1;" horiz-adv-x="1572" d="M-23 -215q129 123 212 299t83 352q0 183 -92 320q101 192 101 344q0 241 -256 424q21 6 47 6q41 0 208.5 -28.5t290.5 -28.5q53 0 80 2q-112 -44 -127 -152q97 -241 227.5 -509t276.5 -486l41 -62q-3 63 -9.5 147.5t-6.5 112.5q0 86 -0.5 175t-2 163.5t-3 144t-2.5 122.5 t-2.5 92t-2 60t-0.5 20q-9 126 -129 172q27 -2 80 -2q139 0 308.5 28.5t213.5 28.5q27 0 48 -6q-256 -183 -256 -424q0 -154 100 -344q-107 -268 -107 -531q0 -150 25 -286q47 -51 90 -87t72 -54.5t66.5 -30t54 -14.5t53.5 -7l-53 135q170 -94 307.5 -143t302.5 -49 q142 0 268 18q-345 -135 -639 -135q-149 0 -288.5 39t-251.5 102.5t-217.5 157t-185.5 189.5t-157 214.5t-129.5 217t-105.5 210.5v-208q0 -242 32.5 -356.5t119.5 -215.5q-91 25 -145 54t-144 102q-58 -101 -152 -172.5t-244 -120.5zM459 1604v237q58 3 128.5 29.5 t123.5 58.5l186 -90q44 3 93.5 19.5t77.5 30.5t81 42v-241q-163 -3 -250 -86l-190 90q-158 -2 -250 -90z" />
<glyph unicode="&#xd2;" horiz-adv-x="1415" d="M84 1434q128 9 290 47.5t267 85.5q96 -13 341.5 -79.5t285.5 -70.5q-54 -89 -54 -264q0 -118 29.5 -232t81.5 -182q-51 -63 -84 -174.5t-33 -224.5q0 -100 30 -180t93 -119q-129 -9 -295 -47.5t-270 -85.5q-96 13 -337.5 79t-281.5 70q52 49 52 226q0 151 -35 298 t-78 160q53 59 87 169.5t34 222.5q0 101 -30.5 183t-92.5 118zM346 1704q20 34 53.5 112.5t40.5 114.5q53 -36 218 -112.5t178 -83.5q-11 -25 -22.5 -60.5t-20.5 -58.5q-92 27 -239.5 54.5t-207.5 33.5zM453 618q0 -61 1 -197.5t1 -189.5q85 -47 139.5 -69.5t142.5 -38.5 q50 25 97 42.5t74 25.5t34 12q10 543 10 700q0 226 -4 330q-59 33 -90.5 48.5t-80 32t-109.5 27.5q-50 -25 -97.5 -44t-75 -28.5t-34.5 -13.5q-8 -180 -8 -637z" />
<glyph unicode="&#xd3;" horiz-adv-x="1415" d="M84 1434q128 9 290 47.5t267 85.5q96 -13 341.5 -79.5t285.5 -70.5q-54 -89 -54 -264q0 -118 29.5 -232t81.5 -182q-51 -63 -84 -174.5t-33 -224.5q0 -100 30 -180t93 -119q-129 -9 -295 -47.5t-270 -85.5q-96 13 -337.5 79t-281.5 70q52 49 52 226q0 151 -35 298 t-78 160q53 59 87 169.5t34 222.5q0 101 -30.5 183t-92.5 118zM453 618q0 -61 1 -197.5t1 -189.5q85 -47 139.5 -69.5t142.5 -38.5q50 25 97 42.5t74 25.5t34 12q10 543 10 700q0 226 -4 330q-59 33 -90.5 48.5t-80 32t-109.5 27.5q-50 -25 -97.5 -44t-75 -28.5t-34.5 -13.5 q-8 -180 -8 -637zM571 1735q13 7 178 83.5t218 112.5q7 -36 40.5 -114.5t53.5 -112.5q-60 -6 -207.5 -33.5t-239.5 -54.5q-9 23 -20.5 58.5t-22.5 60.5z" />
<glyph unicode="&#xd4;" horiz-adv-x="1415" d="M84 1434q128 9 290 47.5t267 85.5q96 -13 341.5 -79.5t285.5 -70.5q-54 -89 -54 -264q0 -118 29.5 -232t81.5 -182q-51 -63 -84 -174.5t-33 -224.5q0 -100 30 -180t93 -119q-129 -9 -295 -47.5t-270 -85.5q-96 13 -337.5 79t-281.5 70q52 49 52 226q0 151 -35 298 t-78 160q53 59 87 169.5t34 222.5q0 101 -30.5 183t-92.5 118zM365 1696q38 28 161 109t187 130q309 -204 350 -239q-18 -15 -32 -27.5t-30.5 -28.5t-31.5 -30q-102 57 -254 110q-154 -53 -256 -110q-19 17 -45.5 42.5t-48.5 43.5zM453 618q0 -61 1 -197.5t1 -189.5 q85 -47 139.5 -69.5t142.5 -38.5q50 25 97 42.5t74 25.5t34 12q10 543 10 700q0 226 -4 330q-59 33 -90.5 48.5t-80 32t-109.5 27.5q-50 -25 -97.5 -44t-75 -28.5t-34.5 -13.5q-8 -180 -8 -637z" />
<glyph unicode="&#xd5;" horiz-adv-x="1415" d="M84 1434q128 9 290 47.5t267 85.5q96 -13 341.5 -79.5t285.5 -70.5q-54 -89 -54 -264q0 -118 29.5 -232t81.5 -182q-51 -63 -84 -174.5t-33 -224.5q0 -100 30 -180t93 -119q-129 -9 -295 -47.5t-270 -85.5q-96 13 -337.5 79t-281.5 70q52 49 52 226q0 151 -35 298 t-78 160q53 59 87 169.5t34 222.5q0 101 -30.5 183t-92.5 118zM371 1604v237q58 3 128.5 29.5t123.5 58.5l186 -90q44 3 93.5 19.5t77.5 30.5t81 42v-241q-163 -3 -250 -86l-190 90q-158 -2 -250 -90zM453 618q0 -61 1 -197.5t1 -189.5q85 -47 139.5 -69.5t142.5 -38.5 q50 25 97 42.5t74 25.5t34 12q10 543 10 700q0 226 -4 330q-59 33 -90.5 48.5t-80 32t-109.5 27.5q-50 -25 -97.5 -44t-75 -28.5t-34.5 -13.5q-8 -180 -8 -637z" />
<glyph unicode="&#xd6;" horiz-adv-x="1415" d="M84 1434q128 9 290 47.5t267 85.5q96 -13 341.5 -79.5t285.5 -70.5q-54 -89 -54 -264q0 -118 29.5 -232t81.5 -182q-51 -63 -84 -174.5t-33 -224.5q0 -100 30 -180t93 -119q-129 -9 -295 -47.5t-270 -85.5q-96 13 -337.5 79t-281.5 70q52 49 52 226q0 151 -35 298 t-78 160q53 59 87 169.5t34 222.5q0 101 -30.5 183t-92.5 118zM328 1749q81 136 176 186q21 -25 78.5 -69t93.5 -68q-70 -51 -111 -91t-69 -97q-10 13 -34 34t-46 38t-51.5 39t-36.5 28zM453 618q0 -61 1 -197.5t1 -189.5q85 -47 139.5 -69.5t142.5 -38.5q50 25 97 42.5 t74 25.5t34 12q10 543 10 700q0 226 -4 330q-59 33 -90.5 48.5t-80 32t-109.5 27.5q-50 -25 -97.5 -44t-75 -28.5t-34.5 -13.5q-8 -180 -8 -637zM735 1749q81 136 176 186q21 -25 78.5 -69t93.5 -68q-70 -51 -111 -91t-69 -97q-10 13 -34 34t-46 38t-51.5 39t-36.5 28z" />
<glyph unicode="&#xd7;" horiz-adv-x="931" d="M92 563q87 31 191 139l32 33l-32 35q-104 108 -191 139l201 199q38 -87 137 -186l35 -37l35 35q109 105 139 190l199 -201q-89 -39 -187 -137l-37 -37l37 -35q98 -98 187 -137l-199 -201q-31 87 -139 191l-35 33l-35 -35q-99 -99 -137 -186z" />
<glyph unicode="&#xd8;" horiz-adv-x="2084" d="M-43 0q32 5 172.5 95.5t232.5 166.5l183 154q-12 123 -42 219t-63 106q53 59 87 169.5t34 222.5q0 101 -30.5 183t-92.5 118q128 9 290 47.5t267 85.5q96 -13 341.5 -79.5t285.5 -70.5q-31 -54 -43 -135l57 49q80 67 119 105t51 67h312q-31 -7 -157 -95t-220 -165 l-172 -143q6 -106 35 -203.5t75 -157.5q-51 -63 -83.5 -174t-32.5 -225q0 -100 30 -180t93 -119q-130 -9 -296 -47.5t-270 -85.5q-96 13 -337 79t-281 70q44 41 51 189l-86 -72q-80 -67 -119 -105t-55 -69h-336zM807 459q2 -82 2 -228q84 -47 139.5 -69.5t143.5 -38.5 q50 25 97 42.5t73.5 25.5t33.5 12q11 575 11 676zM807 635l500 420q0 64 -4 178q-85 48 -139 70t-142 38q-50 -25 -97.5 -44t-75 -28.5t-34.5 -13.5q-8 -177 -8 -620z" />
<glyph unicode="&#xd9;" horiz-adv-x="1452" d="M106 1493q90 -8 133 -15t95.5 -25.5t77.5 -50.5t48.5 -87t39.5 -139q0 -169 -19 -461.5t-22 -392.5l155 -191q120 75 279 80q35 97 35 534q0 262 2 416q-5 112 -19 318q121 -39 238 -39q104 0 248 39q-11 -118 -67.5 -183t-133.5 -82q-4 -40 -4 -118q0 -129 34.5 -249.5 t69.5 -144.5q-118 -118 -118 -405q0 -54 4 -94q23 -5 59 -19q125 -64 141 -245q-215 65 -385 65q-187 0 -330 -32t-206 -70q-18 38 -67 90.5t-91 89t-129 108.5q8 49 8 138q0 144 -18 254.5t-49 132.5q104 132 104 391q0 226 -113 387zM340 1704q20 34 53.5 112.5 t40.5 114.5q53 -36 218 -112.5t177 -83.5q-11 -25 -22.5 -60.5t-20.5 -58.5q-92 27 -239.5 54.5t-206.5 33.5z" />
<glyph unicode="&#xda;" horiz-adv-x="1452" d="M106 1493q90 -8 133 -15t95.5 -25.5t77.5 -50.5t48.5 -87t39.5 -139q0 -169 -19 -461.5t-22 -392.5l155 -191q120 75 279 80q35 97 35 534q0 262 2 416q-5 112 -19 318q121 -39 238 -39q104 0 248 39q-11 -118 -67.5 -183t-133.5 -82q-4 -40 -4 -118q0 -129 34.5 -249.5 t69.5 -144.5q-118 -118 -118 -405q0 -54 4 -94q23 -5 59 -19q125 -64 141 -245q-215 65 -385 65q-187 0 -330 -32t-206 -70q-18 38 -67 90.5t-91 89t-129 108.5q8 49 8 138q0 144 -18 254.5t-49 132.5q104 132 104 391q0 226 -113 387zM565 1735q13 7 178 83.5t218 112.5 q7 -36 40.5 -114.5t53.5 -112.5q-60 -6 -207.5 -33.5t-239.5 -54.5q-9 23 -20.5 58.5t-22.5 60.5z" />
<glyph unicode="&#xdb;" horiz-adv-x="1452" d="M106 1493q90 -8 133 -15t95.5 -25.5t77.5 -50.5t48.5 -87t39.5 -139q0 -169 -19 -461.5t-22 -392.5l155 -191q120 75 279 80q35 97 35 534q0 262 2 416q-5 112 -19 318q121 -39 238 -39q104 0 248 39q-11 -118 -67.5 -183t-133.5 -82q-4 -40 -4 -118q0 -129 34.5 -249.5 t69.5 -144.5q-118 -118 -118 -405q0 -54 4 -94q23 -5 59 -19q125 -64 141 -245q-215 65 -385 65q-187 0 -330 -32t-206 -70q-18 38 -67 90.5t-91 89t-129 108.5q8 49 8 138q0 144 -18 254.5t-49 132.5q104 132 104 391q0 226 -113 387zM358 1696q38 28 161.5 109t187.5 130 q309 -204 350 -239q-18 -15 -32 -27.5t-30.5 -28.5t-31.5 -30q-102 57 -254 110q-154 -53 -256 -110q-19 16 -46 42t-49 44z" />
<glyph unicode="&#xdc;" horiz-adv-x="1452" d="M106 1493q90 -8 133 -15t95.5 -25.5t77.5 -50.5t48.5 -87t39.5 -139q0 -169 -19 -461.5t-22 -392.5l155 -191q120 75 279 80q35 97 35 534q0 262 2 416q-5 112 -19 318q121 -39 238 -39q104 0 248 39q-11 -118 -67.5 -183t-133.5 -82q-4 -40 -4 -118q0 -129 34.5 -249.5 t69.5 -144.5q-118 -118 -118 -405q0 -54 4 -94q23 -5 59 -19q125 -64 141 -245q-215 65 -385 65q-187 0 -330 -32t-206 -70q-18 38 -67 90.5t-91 89t-129 108.5q8 49 8 138q0 144 -18 254.5t-49 132.5q104 132 104 391q0 226 -113 387zM342 1749q81 136 176 186 q21 -25 78.5 -69t93.5 -68q-70 -51 -111 -91t-69 -97q-10 13 -34 34t-46 38t-51.5 39t-36.5 28zM750 1749q81 136 176 186q21 -25 78.5 -69t93.5 -68q-70 -51 -111 -91t-69 -97q-10 13 -34 34t-46 38t-51.5 39t-36.5 28z" />
<glyph unicode="&#xdd;" horiz-adv-x="1550" d="M-35 1507q124 -1 196 -14.5t97.5 -30t58.5 -51.5q26 49 92.5 75.5t151.5 29.5q-59 -80 -59 -162q0 -13 4 -37l217 -508l78 -80l76 78l208 510q2 12 2 37q0 63 -77 162q104 -52 270 -52q52 0 146.5 26t177.5 26q-105 -63 -221.5 -227.5t-190 -329.5t-74.5 -250 q-37 -23 -69 -59t-70 -91t-53 -74q3 -125 35 -252.5t77 -177.5q-97 -65 -151 -122t-84 -138q-35 144 -273 260q52 77 79 194.5t30 233.5q-13 14 -54.5 58.5t-61 64.5t-52.5 48t-61 44q0 125 -62.5 287.5t-167 307t-215.5 214.5zM633 1735q12 7 177 83.5t218 112.5 q7 -36 40.5 -114.5t53.5 -112.5q-59 -6 -206.5 -33.5t-239.5 -54.5q-9 23 -20.5 58.5t-22.5 60.5z" />
<glyph unicode="&#xde;" horiz-adv-x="1380" d="M104 715q91 136 91 334q0 105 -22 230.5t-60 180.5q96 35 149.5 64t138.5 94q52 -49 103 -81t145 -77q-53 -67 -88 -145q89 -46 321.5 -100t387.5 -54q58 0 110 8q-78 -166 -176 -223q-20 -147 -20 -252q0 -86 14 -146.5t51 -135.5q-124 -33 -195 -83t-139 -141 q-72 25 -159 33t-228 10q50 -173 115 -213q-2 -1 -22 -8t-32.5 -12.5t-35.5 -15.5t-41.5 -21.5t-40 -26.5t-41 -33.5t-35.5 -39.5q-18 22 -41.5 42t-49 35t-48 26.5t-49.5 21t-42 15t-36 11t-23 6.5q38 55 60 180t22 230q0 85 -25.5 168.5t-58.5 118.5zM496 471q54 4 92 4 q90 0 168.5 -11t109.5 -32q21 46 64 72q-2 43 -6.5 215.5t-5.5 214.5q-102 17 -252 64t-164 51q-2 -28 -4 -80t-2 -56v-442z" />
<glyph unicode="&#xdf;" horiz-adv-x="1062" d="M98 -244q37 76 37 232v1284q237 181 371 342q62 -31 192 -64.5t254 -54.5q-18 -59 -18 -143q0 -301 8 -332l-262 -205v-16q7 -3 81.5 -45.5t146 -83.5t73.5 -41q-14 -80 -14 -353q0 -113 14 -182q-78 -36 -237.5 -99t-264.5 -99l-16 6q36 18 74.5 44.5t81.5 66.5t70.5 95 t27.5 113v316q-15 11 -49.5 36t-49.5 35.5t-42 28.5t-52.5 33.5t-56.5 31.5v166l262 228v209l-338 104v-1423q0 -135 35 -230h-328z" />
<glyph unicode="&#xe0;" horiz-adv-x="978" d="M68 41q28 75 28 297q0 104 -26 172q46 -6 98 -6q116 0 233.5 21t178.5 53v202q-69 -31 -145.5 -51t-125.5 -20q-77 0 -123.5 40.5t-72.5 155.5q6 0 17 -1t30 -1q135 0 244 25t176 63q69 -75 143.5 -110t173.5 -35q-30 -49 -40.5 -123t-10.5 -229q0 -130 9 -195 t27.5 -88.5t57.5 -32.5v-22q-53 -21 -121.5 -91t-93.5 -122q-83 54 -133 170l-141 -170q-162 95 -383 98zM262 1440q38 24 104 75t89 78q59 -115 198 -329q-22 -18 -48.5 -43.5t-45.5 -42.5q-74 74 -166.5 155t-130.5 107zM369 193q10 -1 43.5 -2.5t51.5 -3t51 -6.5t67 -13 v289q-119 -47 -209 -58z" />
<glyph unicode="&#xe1;" horiz-adv-x="978" d="M68 41q28 75 28 297q0 104 -26 172q46 -6 98 -6q116 0 233.5 21t178.5 53v202q-69 -31 -145.5 -51t-125.5 -20q-77 0 -123.5 40.5t-72.5 155.5q6 0 17 -1t30 -1q135 0 244 25t176 63q69 -75 143.5 -110t173.5 -35q-30 -49 -40.5 -123t-10.5 -229q0 -130 9 -195 t27.5 -88.5t57.5 -32.5v-22q-53 -21 -121.5 -91t-93.5 -122q-83 54 -133 170l-141 -170q-162 95 -383 98zM369 193q10 -1 43.5 -2.5t51.5 -3t51 -6.5t67 -13v289q-119 -47 -209 -58zM383 1264q144 221 199 329q24 -28 89.5 -78.5t102.5 -74.5q-38 -26 -130.5 -107 t-166.5 -155q-19 17 -45.5 42.5t-48.5 43.5z" />
<glyph unicode="&#xe2;" horiz-adv-x="978" d="M68 41q28 75 28 297q0 104 -26 172q46 -6 98 -6q116 0 233.5 21t178.5 53v202q-69 -31 -145.5 -51t-125.5 -20q-77 0 -123.5 40.5t-72.5 155.5q6 0 17 -1t30 -1q135 0 244 25t176 63q69 -75 143.5 -110t173.5 -35q-30 -49 -40.5 -123t-10.5 -229q0 -130 9 -195 t27.5 -88.5t57.5 -32.5v-22q-53 -21 -121.5 -91t-93.5 -122q-83 54 -133 170l-141 -170q-162 95 -383 98zM178 1264q170 166 307 329q78 -83 147.5 -156.5t109 -115.5t53.5 -57q-18 -15 -32 -27.5t-31 -29t-32 -29.5q-106 82 -213 159q-137 -96 -215 -159q-19 17 -45.5 42.5 t-48.5 43.5zM369 193q10 -1 43.5 -2.5t51.5 -3t51 -6.5t67 -13v289q-119 -47 -209 -58z" />
<glyph unicode="&#xe3;" horiz-adv-x="978" d="M68 41q28 75 28 297q0 104 -26 172q46 -6 98 -6q116 0 233.5 21t178.5 53v202q-69 -31 -145.5 -51t-125.5 -20q-77 0 -123.5 40.5t-72.5 155.5q6 0 17 -1t30 -1q135 0 244 25t176 63q69 -75 143.5 -110t173.5 -35q-30 -49 -40.5 -123t-10.5 -229q0 -130 9 -195 t27.5 -88.5t57.5 -32.5v-22q-53 -21 -121.5 -91t-93.5 -122q-83 54 -133 170l-141 -170q-162 95 -383 98zM143 1178v237q61 6 132.5 48t119.5 96l187 -146q64 8 123 46t129 102v-242q-157 -3 -250 -141l-191 145q-166 -2 -250 -145zM369 193q10 -1 43.5 -2.5t51.5 -3 t51 -6.5t67 -13v289q-119 -47 -209 -58z" />
<glyph unicode="&#xe4;" horiz-adv-x="978" d="M68 41q28 75 28 297q0 104 -26 172q46 -6 98 -6q116 0 233.5 21t178.5 53v202q-69 -31 -145.5 -51t-125.5 -20q-77 0 -123.5 40.5t-72.5 155.5q6 0 17 -1t30 -1q135 0 244 25t176 63q69 -75 143.5 -110t173.5 -35q-30 -49 -40.5 -123t-10.5 -229q0 -130 9 -195 t27.5 -88.5t57.5 -32.5v-22q-53 -21 -121.5 -91t-93.5 -122q-83 54 -133 170l-141 -170q-162 95 -383 98zM80 1331q90 154 196 209q24 -28 90 -79t103 -75q-79 -57 -124.5 -101.5t-76.5 -108.5q-15 18 -50 47.5t-82.5 65t-55.5 42.5zM369 193q10 -1 43.5 -2.5t51.5 -3 t51 -6.5t67 -13v289q-119 -47 -209 -58zM551 1331q90 153 197 209q24 -28 89.5 -79.5t102.5 -74.5q-79 -57 -124.5 -101.5t-76.5 -108.5q-15 18 -50 47.5t-82.5 65t-55.5 42.5z" />
<glyph unicode="&#xe5;" horiz-adv-x="978" d="M68 41q28 75 28 297q0 104 -26 172q46 -6 98 -6q116 0 233.5 21t178.5 53v202q-69 -31 -145.5 -51t-125.5 -20q-77 0 -123.5 40.5t-72.5 155.5q6 0 17 -1t30 -1q135 0 244 25t176 63q69 -75 143.5 -110t173.5 -35q-30 -49 -40.5 -123t-10.5 -229q0 -130 9 -195 t27.5 -88.5t57.5 -32.5v-22q-53 -21 -121.5 -91t-93.5 -122q-83 54 -133 170l-141 -170q-162 95 -383 98zM256 1391q0 86 59.5 150.5t163.5 64.5q107 0 165 -62t58 -149q0 -88 -57.5 -152.5t-157.5 -64.5q-110 0 -170.5 63t-60.5 150zM369 193q10 -1 43.5 -2.5t51.5 -3 t51 -6.5t67 -13v289q-119 -47 -209 -58zM377 1391q0 -38 28.5 -67.5t77.5 -29.5q43 0 70 30.5t27 68.5q0 39 -26.5 67.5t-74.5 28.5q-47 0 -74.5 -30t-27.5 -68z" />
<glyph unicode="&#xe6;" horiz-adv-x="1456" d="M68 41q28 75 28 297q0 104 -26 172q46 -6 98 -6q116 0 233.5 21t178.5 53v202q-69 -31 -145.5 -51t-125.5 -20q-77 0 -123.5 40.5t-72.5 155.5q6 0 17 -1t30 -1q135 0 244 25t176 63q75 -84 165 -121q73 46 148 121q174 -36 450 -43q-6 -37 -6 -92q0 -90 15 -196t39 -168 q-201 -15 -506 -66q0 -13 -0.5 -74.5t-3 -110t-7.5 -73.5q27 -7 140 -8t149 -4q11 68 53 111.5t134 70.5q-2 -33 -2 -94q0 -121 24 -189q-85 -10 -204.5 -46.5t-172.5 -74.5q-103 79 -252 119q-4 -1 -60.5 -16t-78.5 -22.5t-68 -27t-85 -44.5q-162 95 -383 98zM369 193 q10 -1 43.5 -2.5t51.5 -3t51 -6.5t67 -13v289q-119 -47 -209 -58zM874 803q2 -67 7 -153t6 -115l239 59q-24 94 -24 178q-101 0 -228 31z" />
<glyph unicode="&#xe7;" horiz-adv-x="917" d="M61 68q28 42 45 155.5t17 249.5q0 238 -45 377q228 39 444 141q138 -87 340 -125q-38 -77 -107 -125.5t-141 -48.5q-47 0 -113 34t-128 91q20 -170 20 -309q0 -153 -20 -293q44 -19 114.5 -34.5t128.5 -20.5q12 78 65.5 136t137.5 83q-2 -23 -2 -115q0 -113 25 -207 q-65 -12 -144.5 -49.5t-109.5 -70.5q-7 5 -53 28v-127h124l86 -63q0 -266 11 -283q-62 -2 -145.5 -24t-121.5 -48q-54 66 -124 66q-43 0 -78 -18q24 60 65 92t86 32q35 0 85 -12t71 -33q-1 5 -1.5 31.5t-1 71.5t-1.5 74q-49 8 -92 8q-44 0 -80 -8q-3 4 -37 38q2 31 2 95v157 q-179 51 -322 54z" />
<glyph unicode="&#xe8;" horiz-adv-x="944" d="M59 68q31 49 46.5 168t15.5 235q0 185 -45 338q149 29 305 182q174 -36 450 -43q-6 -37 -6 -92q0 -90 15 -196t39 -168q-201 -15 -506 -66q-1 -48 -19 -217q43 -17 135.5 -32.5t161.5 -20.5q11 68 53 111.5t134 70.5q-2 -33 -2 -94q0 -121 24 -189q-85 -10 -204.5 -46.5 t-172.5 -74.5q-71 54 -206 93t-218 41zM227 1440q38 24 104 75t89 78q59 -115 198 -329q-22 -18 -48.5 -43.5t-45.5 -42.5q-74 74 -166.5 155t-130.5 107zM352 807q20 -162 23 -272l239 59q-24 94 -24 178q-105 0 -238 35z" />
<glyph unicode="&#xe9;" horiz-adv-x="944" d="M59 68q31 49 46.5 168t15.5 235q0 185 -45 338q149 29 305 182q174 -36 450 -43q-6 -37 -6 -92q0 -90 15 -196t39 -168q-201 -15 -506 -66q-1 -48 -19 -217q43 -17 135.5 -32.5t161.5 -20.5q11 68 53 111.5t134 70.5q-2 -33 -2 -94q0 -121 24 -189q-85 -10 -204.5 -46.5 t-172.5 -74.5q-71 54 -206 93t-218 41zM328 1264q139 214 198 329q23 -27 89 -78t104 -75q-38 -26 -130.5 -107t-166.5 -155q-19 17 -45.5 42.5t-48.5 43.5zM352 807q20 -162 23 -272l239 59q-24 94 -24 178q-105 0 -238 35z" />
<glyph unicode="&#xea;" horiz-adv-x="944" d="M59 68q31 49 46.5 168t15.5 235q0 185 -45 338q149 29 305 182q174 -36 450 -43q-6 -37 -6 -92q0 -90 15 -196t39 -168q-201 -15 -506 -66q-1 -48 -19 -217q43 -17 135.5 -32.5t161.5 -20.5q11 68 53 111.5t134 70.5q-2 -33 -2 -94q0 -121 24 -189q-85 -10 -204.5 -46.5 t-172.5 -74.5q-71 54 -206 93t-218 41zM184 1264q176 172 308 329q106 -112 204 -217t105 -112q-18 -15 -32 -27.5t-30.5 -28.5t-31.5 -30q-106 82 -213 159q-137 -96 -215 -159q-19 16 -46 42t-49 44zM352 807q20 -162 23 -272l239 59q-24 94 -24 178q-105 0 -238 35z" />
<glyph unicode="&#xeb;" horiz-adv-x="944" d="M59 68q31 49 46.5 168t15.5 235q0 185 -45 338q149 29 305 182q174 -36 450 -43q-6 -37 -6 -92q0 -90 15 -196t39 -168q-201 -15 -506 -66q-1 -48 -19 -217q43 -17 135.5 -32.5t161.5 -20.5q11 68 53 111.5t134 70.5q-2 -33 -2 -94q0 -121 24 -189q-85 -10 -204.5 -46.5 t-172.5 -74.5q-71 54 -206 93t-218 41zM66 1331q90 154 196 209q24 -28 90 -79t103 -75q-79 -57 -124.5 -101.5t-76.5 -108.5q-15 18 -50 47.5t-82.5 65t-55.5 42.5zM352 807q20 -162 23 -272l239 59q-24 94 -24 178q-105 0 -238 35zM537 1331q90 154 196 209q24 -28 90 -79 t103 -75q-79 -57 -124.5 -101.5t-76.5 -108.5q-15 18 -50 47.5t-82.5 65t-55.5 42.5z" />
<glyph unicode="&#xec;" horiz-adv-x="542" d="M51 1440q38 24 104 75t89 78q59 -115 198 -329q-22 -18 -48.5 -43.5t-45.5 -42.5q-74 74 -166.5 155t-130.5 107zM63 909v23q171 25 306 61l37 -61v-752q0 -128 55 -149v-31q-118 -19 -242 -57h-10q-70 98 -70 221v713z" />
<glyph unicode="&#xed;" horiz-adv-x="542" d="M63 909v23q171 25 306 61l37 -61v-752q0 -128 55 -149v-31q-118 -19 -242 -57h-10q-70 98 -70 221v713zM90 1264q144 221 199 329q24 -28 89.5 -78.5t102.5 -74.5q-38 -26 -130.5 -107t-166.5 -155q-19 17 -45.5 42.5t-48.5 43.5z" />
<glyph unicode="&#xee;" horiz-adv-x="542" d="M-33 1264q170 166 307 329q78 -83 147.5 -156.5t109 -115.5t53.5 -57q-18 -15 -32 -27.5t-31 -29t-32 -29.5q-106 82 -213 159q-137 -96 -215 -159q-19 17 -45.5 42.5t-48.5 43.5zM63 909v23q171 25 306 61l37 -61v-752q0 -128 55 -149v-31q-118 -19 -242 -57h-10 q-70 98 -70 221v713z" />
<glyph unicode="&#xef;" horiz-adv-x="542" d="M-152 1331q90 153 197 209q24 -28 90 -79t103 -75q-79 -57 -124.5 -101.5t-76.5 -108.5q-15 18 -50.5 47.5t-82.5 65t-56 42.5zM63 909v23q171 25 306 61l37 -61v-752q0 -128 55 -149v-31q-118 -19 -242 -57h-10q-70 98 -70 221v713zM319 1331q90 153 197 209 q24 -28 90 -79t103 -75q-79 -57 -124.5 -101.5t-76.5 -108.5q-15 18 -50.5 47.5t-82.5 65t-56 42.5z" />
<glyph unicode="&#xf0;" horiz-adv-x="1060" d="M63 49q56 50 56 287q0 119 -16 263.5t-31 164.5q190 141 270 221l344 -125q-69 209 -133 338l-227 -45l-27 135l182 37q-107 177 -250 289h297q101 -96 191 -240l229 49l37 -135l-194 -41q157 -300 174 -596q-11 -108 -11 -178q0 -128 23 -299q-101 -12 -223 -77.5 t-207 -153.5q-45 35 -197 72.5t-241 37.5q-22 0 -46 -4zM365 803q18 -172 18 -311q0 -121 -10 -281q178 -19 309 -59l4 579q-94 8 -185 28t-136 44z" />
<glyph unicode="&#xf1;" horiz-adv-x="1064" d="M66 909v23q169 25 305 61l37 -61v-170q162 105 301 250q80 -73 131 -110.5t129 -74.5q-16 -59 -22.5 -148.5t-6.5 -291.5q0 -265 18 -348q-75 -28 -161 -91t-150 -130l-12 12q21 73 37 212t16 196q0 78 -1 233.5t-1 233.5l-27 28l-251 -112v-441q0 -128 55 -149v-31h-377 v31q55 20 55 131v715zM215 1178v237q61 6 132.5 48t119.5 96l186 -146q64 8 123 46t129 102v-242q-157 -3 -250 -141l-190 145q-166 -2 -250 -145z" />
<glyph unicode="&#xf2;" horiz-adv-x="1046" d="M61 49q56 50 56 287q0 119 -16 263.5t-31 164.5q79 13 178 74.5t190 152.5q247 -80 410 -80q64 0 115 7q-25 -138 -25 -314q0 -224 37 -430q-101 -12 -223 -77.5t-207 -153.5q-45 35 -197.5 72.5t-241.5 37.5q-21 0 -45 -4zM289 1440q37 24 102.5 74.5t89.5 78.5 q55 -108 199 -329q-22 -18 -48.5 -43.5t-45.5 -42.5q-74 74 -166.5 155t-130.5 107zM362 803q19 -182 19 -311q0 -121 -10 -281q178 -19 309 -59l4 579q-95 8 -186 28t-136 44z" />
<glyph unicode="&#xf3;" horiz-adv-x="1046" d="M61 49q56 50 56 287q0 119 -16 263.5t-31 164.5q79 13 178 74.5t190 152.5q247 -80 410 -80q64 0 115 7q-25 -138 -25 -314q0 -224 37 -430q-101 -12 -223 -77.5t-207 -153.5q-45 35 -197.5 72.5t-241.5 37.5q-21 0 -45 -4zM362 803q19 -182 19 -311q0 -121 -10 -281 q178 -19 309 -59l4 579q-95 8 -186 28t-136 44zM367 1264q139 214 198 329q23 -27 89 -78t104 -75q-38 -26 -130.5 -107t-166.5 -155q-19 17 -45.5 42.5t-48.5 43.5z" />
<glyph unicode="&#xf4;" horiz-adv-x="1046" d="M61 49q56 50 56 287q0 119 -16 263.5t-31 164.5q79 13 178 74.5t190 152.5q247 -80 410 -80q64 0 115 7q-25 -138 -25 -314q0 -224 37 -430q-101 -12 -223 -77.5t-207 -153.5q-45 35 -197.5 72.5t-241.5 37.5q-21 0 -45 -4zM225 1264q170 166 307 329 q78 -83 147.5 -156.5t109 -115.5t53.5 -57q-18 -15 -32 -27.5t-30.5 -28.5t-31.5 -30q-106 82 -213 159q-145 -101 -216 -159q-19 17 -45.5 42.5t-48.5 43.5zM362 803q19 -182 19 -311q0 -121 -10 -281q178 -19 309 -59l4 579q-95 8 -186 28t-136 44z" />
<glyph unicode="&#xf5;" horiz-adv-x="1046" d="M61 49q56 50 56 287q0 119 -16 263.5t-31 164.5q79 13 178 74.5t190 152.5q247 -80 410 -80q64 0 115 7q-25 -138 -25 -314q0 -224 37 -430q-101 -12 -223 -77.5t-207 -153.5q-45 35 -197.5 72.5t-241.5 37.5q-21 0 -45 -4zM190 1178v237q61 6 132.5 48t119.5 96 l187 -146q64 8 123 46t129 102v-242q-157 -3 -250 -141l-191 145q-166 -2 -250 -145zM362 803q19 -182 19 -311q0 -121 -10 -281q178 -19 309 -59l4 579q-95 8 -186 28t-136 44z" />
<glyph unicode="&#xf6;" horiz-adv-x="1046" d="M61 49q56 50 56 287q0 119 -16 263.5t-31 164.5q79 13 178 74.5t190 152.5q247 -80 410 -80q64 0 115 7q-25 -138 -25 -314q0 -224 37 -430q-101 -12 -223 -77.5t-207 -153.5q-45 35 -197.5 72.5t-241.5 37.5q-21 0 -45 -4zM106 1331q90 153 197 209q24 -28 90 -79 t103 -75q-79 -57 -124.5 -101.5t-76.5 -108.5q-15 18 -50.5 47.5t-82.5 65t-56 42.5zM362 803q19 -182 19 -311q0 -121 -10 -281q178 -19 309 -59l4 579q-95 8 -186 28t-136 44zM578 1331q90 154 196 209q24 -28 90 -79t103 -75q-79 -57 -124.5 -101.5t-76.5 -108.5 q-15 18 -50 47.5t-82.5 65t-55.5 42.5z" />
<glyph unicode="&#xf7;" horiz-adv-x="933" d="M80 596v283q76 -37 231 -37h310q155 0 231 37v-283q-95 35 -229 35h-314q-134 0 -229 -35zM285 299q90 154 196 209q24 -28 90 -79t103 -75q-79 -56 -124.5 -101.5t-76.5 -109.5q-15 18 -50 47.5t-83 66.5t-55 42zM285 1120q90 154 196 209q23 -27 89 -78t104 -75 q-79 -56 -124.5 -101.5t-76.5 -109.5q-15 18 -50 47.5t-82.5 65t-55.5 42.5z" />
<glyph unicode="&#xf8;" horiz-adv-x="1226" d="M-16 -20l196 167q15 73 15 189q0 119 -16.5 263.5t-31.5 164.5q79 13 178.5 74.5t190.5 152.5q247 -80 410 -80q63 0 114 7q-3 -12 -8 -44l90 76h123l-225 -192q-4 -94 -4 -154q0 -224 37 -430q-101 -12 -223 -77.5t-207 -153.5q-44 34 -190.5 70.5t-239.5 39.5l-87 -73 h-122zM440 803q19 -182 19 -311q0 -70 -2 -109l305 260v88q-95 8 -186 28t-136 44zM449 211q178 -19 309 -59l2 385l-307 -263z" />
<glyph unicode="&#xf9;" horiz-adv-x="1085" d="M35 885l2 22q85 9 202 36t171 50q-15 -115 -15 -288v-414l86 -66l197 86v320q0 143 -16 187t-76 61v26q209 13 358 86v-483q0 -191 17.5 -255.5t74.5 -74.5v-22q-53 -23 -122.5 -92t-92.5 -121q-68 58 -98 107t-39 120q-121 -63 -190.5 -111t-135.5 -116 q-84 72 -134.5 108t-125.5 76q15 23 28 160t13 268q0 151 -22 221.5t-82 108.5zM307 1440q38 24 104 75t89 78q59 -115 198 -329q-22 -18 -48.5 -43.5t-45.5 -42.5q-74 74 -166.5 155t-130.5 107z" />
<glyph unicode="&#xfa;" horiz-adv-x="1085" d="M35 885l2 22q85 9 202 36t171 50q-15 -115 -15 -288v-414l86 -66l197 86v320q0 143 -16 187t-76 61v26q209 13 358 86v-483q0 -191 17.5 -255.5t74.5 -74.5v-22q-53 -23 -122.5 -92t-92.5 -121q-68 58 -98 107t-39 120q-121 -63 -190.5 -111t-135.5 -116 q-84 72 -134.5 108t-125.5 76q15 23 28 160t13 268q0 151 -22 221.5t-82 108.5zM346 1264q144 221 199 329q24 -28 89.5 -78.5t102.5 -74.5q-38 -26 -130.5 -107t-166.5 -155q-19 17 -45.5 42.5t-48.5 43.5z" />
<glyph unicode="&#xfb;" horiz-adv-x="1085" d="M35 885l2 22q85 9 202 36t171 50q-15 -115 -15 -288v-414l86 -66l197 86v320q0 143 -16 187t-76 61v26q209 13 358 86v-483q0 -191 17.5 -255.5t74.5 -74.5v-22q-53 -23 -122.5 -92t-92.5 -121q-68 58 -98 107t-39 120q-121 -63 -190.5 -111t-135.5 -116 q-84 72 -134.5 108t-125.5 76q15 23 28 160t13 268q0 151 -22 221.5t-82 108.5zM223 1264q170 166 307 329q78 -83 147.5 -156.5t109 -115.5t53.5 -57q-18 -15 -32 -27.5t-31 -29t-32 -29.5q-106 82 -213 159q-137 -96 -215 -159q-19 17 -45.5 42.5t-48.5 43.5z" />
<glyph unicode="&#xfc;" horiz-adv-x="1085" d="M35 885l2 22q85 9 202 36t171 50q-15 -115 -15 -288v-414l86 -66l197 86v320q0 143 -16 187t-76 61v26q209 13 358 86v-483q0 -191 17.5 -255.5t74.5 -74.5v-22q-53 -23 -122.5 -92t-92.5 -121q-68 58 -98 107t-39 120q-121 -63 -190.5 -111t-135.5 -116 q-84 72 -134.5 108t-125.5 76q15 23 28 160t13 268q0 151 -22 221.5t-82 108.5zM104 1331q90 153 197 209q24 -28 90 -79t103 -75q-79 -57 -124.5 -101.5t-76.5 -108.5q-15 18 -50.5 47.5t-82.5 65t-56 42.5zM575 1331q90 153 197 209q24 -28 90 -79t103 -75 q-79 -57 -124.5 -101.5t-76.5 -108.5q-15 18 -50.5 47.5t-82.5 65t-56 42.5z" />
<glyph unicode="&#xfd;" horiz-adv-x="1089" d="M27 -362q36 179 135 272q47 -4 175.5 -72t211.5 -133l153 49q-16 91 -18 455q-121 -64 -188.5 -111.5t-130.5 -113.5q-83 72 -134.5 108t-126.5 76q15 22 28 152t13 255q0 142 -22 208.5t-82 101.5l2 22q85 9 202 36t171 50q-15 -115 -15 -288v-373l86 -66l197 86v279 q0 143 -16 187t-76 61v26q209 13 358 86v-942q0 -265 17 -346q-114 0 -261 -65.5t-251 -163.5q-117 86 -218 125t-210 39zM422 1264q144 221 199 329q24 -28 89.5 -78.5t102.5 -74.5q-38 -26 -130.5 -107t-166.5 -155q-19 17 -45.5 42.5t-48.5 43.5z" />
<glyph unicode="&#xfe;" horiz-adv-x="1089" d="M63 -580q72 86 72 320v1499q0 108 -12 172.5t-49 130.5q43 -14 96 -14q123 0 303 86q-72 -86 -72 -320v-456q68 48 175 90.5t212 66.5q93 -101 224 -139q-14 -53 -21.5 -113t-8.5 -97.5t-1 -106.5q0 -353 35 -424q-164 -28 -377 -174q-118 49 -238 61v-207 q0 -107 12.5 -171.5t49.5 -131.5q-43 14 -96 14q-124 0 -304 -86zM401 184q62 -3 170 -41q73 64 142 93q-6 59 -6 268q0 129 10 252q-79 -3 -174 -31t-142 -59v-482z" />
<glyph unicode="&#xff;" horiz-adv-x="1089" d="M27 -362q36 179 135 272q47 -4 175.5 -72t211.5 -133l153 49q-16 91 -18 455q-121 -64 -188.5 -111.5t-130.5 -113.5q-83 72 -134.5 108t-126.5 76q15 22 28 152t13 255q0 142 -22 208.5t-82 101.5l2 22q85 9 202 36t171 50q-15 -115 -15 -288v-373l86 -66l197 86v279 q0 143 -16 187t-76 61v26q209 13 358 86v-942q0 -265 17 -346q-114 0 -261 -65.5t-251 -163.5q-117 86 -218 125t-210 39zM119 1331q90 154 196 209q24 -28 90 -79t103 -75q-79 -57 -124.5 -101.5t-76.5 -108.5q-15 18 -50 47.5t-82.5 65t-55.5 42.5zM590 1331 q90 154 196 209q24 -28 90 -79t103 -75q-79 -57 -124.5 -101.5t-76.5 -108.5q-15 18 -50 47.5t-82.5 65t-55.5 42.5z" />
<glyph unicode="&#x152;" horiz-adv-x="1902" d="M29 1516q80 -19 275.5 -40.5t383.5 -21.5q403 0 627 107q77 -37 107 -50t73.5 -23.5t91.5 -10.5q94 0 199 24q-1 -66 -24.5 -117.5t-61.5 -80t-79 -42.5t-83 -14q-53 0 -109.5 28.5t-87.5 61.5q-23 -20 -80 -41.5t-79 -21.5q-6 -36 -7 -87t-1 -282q62 -10 96 -10 q43 0 75.5 14t75.5 45q6 -5 40 -36t52.5 -47t52 -39.5t64.5 -38.5q-26 -12 -56.5 -33t-51.5 -37.5t-53.5 -43.5t-45.5 -38q-80 70 -145 70q-42 0 -98 -15q-17 -97 -17 -227q0 -112 17 -231q23 -16 53.5 -28.5t85 -31.5t94.5 -35q4 5 32.5 17t54.5 21t28 9q-14 106 -27 134 q88 80 165 129.5t173 89.5q-45 -80 -45 -246q0 -118 25 -166q-36 -17 -147.5 -74.5t-250.5 -119.5q-26 4 -223 31.5t-291 47.5q-491 -75 -737 -75q-61 0 -92 2q94 68 136 181.5t42 240.5q0 128 -36.5 244.5t-72.5 142.5q18 18 27 30q92 119 92 375q0 54 -4 94q-23 5 -59 19 q-153 64 -174 246zM510 113q17 6 159.5 38.5t184.5 45.5q47 126 47 256q0 95 -20 178t-54 125q70 70 70 276q0 112 -20 215q-266 -4 -326 -4q-35 -97 -35 -534q0 -242 -6 -596z" />
<glyph unicode="&#x153;" horiz-adv-x="1505" d="M61 49q56 50 56 287q0 119 -16 263.5t-31 164.5q79 13 178 74.5t190 152.5q163 -24 254 -24q104 0 207 18q135 -28 494 -37q-7 -44 -7 -92q0 -90 15 -196t39 -168q-201 -15 -506 -66q-1 -48 -19 -217q43 -17 135.5 -32.5t161.5 -20.5q11 68 53 111.5t134 70.5 q-2 -33 -2 -94q0 -121 24 -189q-85 -10 -204.5 -46.5t-172.5 -74.5q-62 46 -170.5 81.5t-201.5 47.5q-69 -60 -127 -120q-45 35 -197.5 72.5t-241.5 37.5q-21 0 -45 -4zM362 803q19 -182 19 -311q0 -121 -10 -281q155 -18 282 -53q29 133 29 313q0 149 -18 262 q-89 8 -174 27.5t-128 42.5zM920 807q18 -126 18 -203q0 -46 -2 -69l240 59q-25 98 -25 178q-98 0 -231 35z" />
<glyph unicode="&#x178;" horiz-adv-x="1550" d="M-35 1507q124 -1 196 -14.5t97.5 -30t58.5 -51.5q26 49 92.5 75.5t151.5 29.5q-59 -80 -59 -162q0 -13 4 -37l217 -508l78 -80l76 78l208 510q2 12 2 37q0 63 -77 162q104 -52 270 -52q52 0 146.5 26t177.5 26q-105 -63 -221.5 -227.5t-190 -329.5t-74.5 -250 q-37 -23 -69 -59t-70 -91t-53 -74q3 -125 35 -252.5t77 -177.5q-97 -65 -151 -122t-84 -138q-35 144 -273 260q52 77 79 194.5t30 233.5q-13 14 -54.5 58.5t-61 64.5t-52.5 48t-61 44q0 125 -62.5 287.5t-167 307t-215.5 214.5zM422 1749q81 136 176 186q21 -25 78.5 -69 t93.5 -68q-70 -51 -111 -91t-69 -97q-10 13 -34 34t-46 38t-51.5 39t-36.5 28zM829 1749q81 135 177 186q21 -25 78.5 -69t93.5 -68q-71 -51 -112 -91t-69 -97q-10 13 -34 34t-46 38t-51.5 39t-36.5 28z" />
<glyph unicode="&#x2c6;" horiz-adv-x="657" d="M20 1264q176 172 308 329q106 -112 204 -217t105 -112q-18 -15 -32 -27.5t-30.5 -28.5t-31.5 -30q-106 82 -213 159q-137 -96 -215 -159q-19 16 -46 42t-49 44z" />
<glyph unicode="&#x2dc;" horiz-adv-x="772" d="M41 1178v237q61 6 132.5 48t119.5 96l186 -146q64 8 123 46t129 102v-242q-157 -3 -250 -141l-190 145q-166 -2 -250 -145z" />
<glyph unicode="&#x2000;" horiz-adv-x="967" />
<glyph unicode="&#x2001;" horiz-adv-x="1935" />
<glyph unicode="&#x2002;" horiz-adv-x="967" />
<glyph unicode="&#x2003;" horiz-adv-x="1935" />
<glyph unicode="&#x2004;" horiz-adv-x="645" />
<glyph unicode="&#x2005;" horiz-adv-x="483" />
<glyph unicode="&#x2006;" horiz-adv-x="322" />
<glyph unicode="&#x2007;" horiz-adv-x="322" />
<glyph unicode="&#x2008;" horiz-adv-x="241" />
<glyph unicode="&#x2009;" horiz-adv-x="387" />
<glyph unicode="&#x200a;" horiz-adv-x="107" />
<glyph unicode="&#x2010;" horiz-adv-x="919" d="M125 406v282q76 -37 231 -37h207q156 0 232 37v-282q-92 34 -230 34h-211q-137 0 -229 -34z" />
<glyph unicode="&#x2011;" horiz-adv-x="919" d="M125 406v282q76 -37 231 -37h207q156 0 232 37v-282q-92 34 -230 34h-211q-137 0 -229 -34z" />
<glyph unicode="&#x2012;" horiz-adv-x="919" d="M125 406v282q76 -37 231 -37h207q156 0 232 37v-282q-92 34 -230 34h-211q-137 0 -229 -34z" />
<glyph unicode="&#x2013;" horiz-adv-x="1021" d="M125 406v282q76 -37 231 -37h310q155 0 231 37v-282q-92 34 -229 34h-314q-137 0 -229 -34z" />
<glyph unicode="&#x2014;" horiz-adv-x="1021" d="M125 406v282q76 -37 231 -37h310q155 0 231 37v-282q-92 34 -229 34h-314q-137 0 -229 -34z" />
<glyph unicode="&#x2018;" horiz-adv-x="466" d="M63 1210q16 48 40.5 93.5t63.5 96t97.5 83.5t128.5 39q-55 -63 -55 -154q0 -99 55 -168q-45 -37 -66.5 -80t-43.5 -123q-34 0 -68.5 12t-68 36t-56.5 67t-27 98z" />
<glyph unicode="&#x2019;" horiz-adv-x="481" d="M96 997q56 65 56 154q0 98 -56 168q46 37 68 80.5t43 122.5q34 0 68.5 -12t67.5 -36t56 -67t27 -98q-16 -48 -40.5 -93.5t-63.5 -96t-97.5 -83.5t-128.5 -39z" />
<glyph unicode="&#x201a;" horiz-adv-x="477" d="M72 92q45 37 66.5 80t43.5 123q34 0 68.5 -12t67.5 -36t56 -67t27 -98q-16 -48 -40.5 -93.5t-63 -95.5t-97 -83t-128.5 -39q55 63 55 153q0 99 -55 168z" />
<glyph unicode="&#x201c;" horiz-adv-x="876" d="M63 1210q16 48 40.5 93.5t63.5 96t97.5 83.5t128.5 39q-55 -63 -55 -154q0 -99 55 -168q-45 -37 -66.5 -80t-43.5 -123q-34 0 -68.5 12t-68 36t-56.5 67t-27 98zM473 1210q16 48 40.5 93.5t63.5 96t97.5 83.5t128.5 39q-55 -63 -55 -154q0 -99 55 -168q-46 -37 -68 -80.5 t-43 -122.5q-34 0 -68.5 12t-67.5 36t-56 67t-27 98z" />
<glyph unicode="&#x201d;" horiz-adv-x="890" d="M96 997q56 65 56 154q0 98 -56 168q46 37 68 80.5t43 122.5q34 0 68.5 -12t67.5 -36t56 -67t27 -98q-16 -48 -40.5 -93.5t-63.5 -96t-97.5 -83.5t-128.5 -39zM506 997q55 63 55 154q0 99 -55 168q45 37 66.5 80t43.5 123q34 0 68.5 -12t68 -36t56.5 -67t27 -98 q-16 -48 -40.5 -93.5t-63.5 -96t-97.5 -83.5t-128.5 -39z" />
<glyph unicode="&#x201e;" horiz-adv-x="907" d="M72 92q45 37 66.5 80t43.5 123q34 0 68.5 -12t67.5 -36t56 -67t27 -98q-16 -48 -40.5 -93.5t-63 -95.5t-97 -83t-128.5 -39q55 63 55 153q0 99 -55 168zM502 92q45 37 66.5 80t43.5 123q34 0 68.5 -12t67.5 -36t56 -67t27 -98q-16 -48 -40.5 -93.5t-63 -95.5t-97 -83 t-128.5 -39q55 63 55 153q0 99 -55 168z" />
<glyph unicode="&#x2022;" horiz-adv-x="741" d="M111 625q63 25 109.5 56t77.5 70t49 72t38 82q58 -204 252 -295q-48 -16 -78.5 -31.5t-67 -44.5t-67 -76.5t-59.5 -117.5q-38 115 -88 175t-166 110z" />
<glyph unicode="&#x2026;" horiz-adv-x="1353" d="M55 45q90 153 197 209q24 -28 89.5 -79.5t102.5 -74.5q-78 -56 -123.5 -101.5t-76.5 -109.5q-15 18 -50.5 47.5t-83 66t-55.5 42.5zM485 45q90 153 197 209q24 -28 89.5 -79.5t102.5 -74.5q-78 -56 -123.5 -101.5t-76.5 -109.5q-15 18 -50.5 47.5t-83 66t-55.5 42.5z M915 45q90 153 197 209q24 -28 90 -79t103 -75q-79 -56 -124.5 -101.5t-76.5 -109.5q-15 18 -50.5 47.5t-83 66t-55.5 42.5z" />
<glyph unicode="&#x202f;" horiz-adv-x="387" />
<glyph unicode="&#x2039;" horiz-adv-x="804" d="M49 475l412 457q6 -4 63.5 -12.5t96.5 -8.5q61 0 129 21q-23 -23 -111 -123t-183.5 -209t-109.5 -125q8 -9 108.5 -128t187.5 -220.5t110 -124.5q-79 21 -144 21q-66 0 -145 -21z" />
<glyph unicode="&#x203a;" horiz-adv-x="804" d="M53 2q23 23 110 124.5t187.5 220.5t108.5 128q-14 16 -109.5 125t-183.5 209t-111 123q67 -21 129 -21q39 0 96.5 8.5t63.5 12.5l412 -457l-414 -473q-80 21 -145 21t-144 -21z" />
<glyph unicode="&#x205f;" horiz-adv-x="483" />
<glyph unicode="&#x20ac;" horiz-adv-x="1294" d="M80 1524q242 -25 471 -25q174 0 361 14.5t216 14.5q28 0 52 -4q-23 -47 -54.5 -264t-31.5 -265q-78 53 -111.5 117t-54.5 172q-28 21 -68.5 28t-111.5 7q-40 0 -103 -2t-78 -2q-23 -63 -30 -291h155q156 0 232 37v-287q-95 35 -230 35h-157v-193h155q156 0 232 37v-286 q-92 34 -230 34h-153q2 -82 2 -225q43 -10 94.5 -24t74 -19t71.5 -11.5t124 -10.5q15 66 37 120t59.5 109t67 91.5t90.5 105.5q10 -97 16.5 -213t11 -177t13.5 -81q-97 -23 -182.5 -71t-200.5 -145q-108 65 -235 112.5t-291.5 93t-196.5 55.5q55 13 98 94.5t54 185.5 q-46 -8 -96 -24v286q37 -19 100 -30q0 33 1 91t1 85q-49 -8 -102 -25v287q52 -25 106 -31v180q0 61 -6 136q-47 20 -98.5 71t-73.5 107z" />
<glyph unicode="&#x2122;" horiz-adv-x="1564" d="M96 1360q65 50 111 141q53 -11 113.5 -28t101.5 -24t100 -7q70 0 162 12q-10 -11 -35.5 -45.5t-42 -51t-58 -35t-97.5 -22.5v-186q0 -250 43 -266q-1 0 -3.5 -1t-3.5 -1q-71 -32 -116 -103q-29 53 -54.5 75t-60.5 30q33 49 33 260v215q-103 27 -193 37zM653 739 q42 60 61 93.5t34.5 91.5t15.5 131v252q0 133 -78 192q68 -5 115.5 -16t81 -31t53.5 -41.5t38 -60t29.5 -72t32.5 -92t43 -107.5q48 137 90 221t89.5 129.5t93.5 61.5t116 18q-73 -90 -73 -247v-234q0 -58 1 -89t9.5 -69.5t24.5 -52.5q-1 0 -24.5 -10.5t-36 -17.5t-30.5 -21 t-26 -29q-20 26 -57 49.5t-70 32.5q51 35 51 266v72l-162 -319l-164 315v-68q0 -145 19 -214t71 -130q-59 7 -104 33t-68 62q-56 -89 -176 -99z" />
<glyph unicode="&#x25fc;" horiz-adv-x="993" d="M0 0v993h993v-993h-993z" />
</font>
</defs>
</svg>
